<?xml version="1.0" standalone="no"?><!DOCTYPE svg PUBLIC "-//W3C//DTD SVG 1.1//EN" "http://www.w3.org/Graphics/SVG/1.1/DTD/svg11.dtd"><svg class="icon" width="200px" height="200.00px" viewBox="0 0 1024 1024" version="1.1" xmlns="http://www.w3.org/2000/svg"><path d="M33.64731594 86.64140844v369.07002843a54.56097281 54.56097281 0 0 0 54.64132781 54.64132782h323.50880344a54.56097281 54.56097281 0 0 0 54.64132781-54.64132782V86.64140844a54.56097281 54.56097281 0 0 0-54.64132781-54.64132782H88.28864375A54.56097281 54.56097281 0 0 0 33.64731594 86.64140844zM398.05676 441.81004062H101.94897594V100.30174062h296.10778406zM557.561225 568.44935281v368.82896438a54.72168281 54.72168281 0 0 0 54.64132781 54.72168281h323.26773938a54.80203781 54.80203781 0 0 0 54.80203781-54.72168281v-368.82896438a54.80203781 54.80203781 0 0 0-54.80203781-54.80203687H612.20255281a54.72168281 54.72168281 0 0 0-54.64132781 54.80203687zM921.97067 923.939405H625.862885V582.02933h296.107785zM557.561225 86.72176344v277.78686844a54.64132781 54.64132781 0 0 0 54.64132781 54.72168281h323.42844938a54.72168281 54.72168281 0 0 0 54.72168281-54.72168281V86.72176344A54.72168281 54.72168281 0 0 0 935.63100219 32.00008063H612.20255281a54.64132781 54.64132781 0 0 0-54.64132781 54.72168281z m364.409445 264.20689125H625.862885V100.30174062h296.107785zM33.64731594 659.41109375v278.02793344a54.56097281 54.56097281 0 0 0 54.56097281 54.56097281h323.58915844a54.56097281 54.56097281 0 0 0 54.64132781-54.56097281v-278.02793344a54.56097281 54.56097281 0 0 0-54.64132781-54.64132875H88.20828875A54.56097281 54.56097281 0 0 0 33.64731594 659.41109375zM398.05676 923.939405H101.94897594V673.15178h296.10778406z"  /></svg>
