<?xml version="1.0" standalone="no"?><!DOCTYPE svg PUBLIC "-//W3C//DTD SVG 1.1//EN" "http://www.w3.org/Graphics/SVG/1.1/DTD/svg11.dtd"><svg class="icon" width="200px" height="200.00px" viewBox="0 0 1024 1024" version="1.1" xmlns="http://www.w3.org/2000/svg"><path d="M507.257263 935.558737l-362.442105-130.101895V79.710316h726.285474l-0.053895 726.016-363.034948 130.048-0.754526-0.215579z m436.170105-155.701895l-0.053894-714.536421c0-31.474526-25.977263-56.912842-57.936842-56.912842H130.533053c-32.013474 0-57.990737 25.492211-57.936842 56.912842v714.590316L12.934737 758.514526A9.593263 9.593263 0 0 0 0 767.407158v51.146105c0 3.988211 2.533053 7.545263 6.359579 8.892632l501.544421 179.685052 13.743158-4.850526-13.635369 4.850526 501.544422-179.685052a9.485474 9.485474 0 0 0 6.359578-8.892632v-51.2a9.593263 9.593263 0 0 0-12.880842-8.838737l-59.607579 21.342316z"  /><path d="M788.533895 475.351579H227.435789c-5.389474 0-9.701053-4.311579-9.701052-9.539368v-52.277895c0-5.281684 4.311579-9.539368 9.701052-9.539369H788.48c5.389474 0 9.701053 4.311579 9.701053 9.539369v52.277895c0 5.227789-4.311579 9.485474-9.701053 9.485473M788.533895 308.924632H227.435789c-5.389474 0-9.701053-4.257684-9.701052-9.485474v-52.277895c0-5.281684 4.311579-9.539368 9.701052-9.539368H788.48c5.389474 0 9.701053 4.311579 9.701053 9.539368v52.277895c0 5.227789-4.311579 9.485474-9.701053 9.485474M691.792842 641.670737H227.435789c-5.389474 0-9.701053-4.257684-9.701052-9.485474v-52.277895c0-5.281684 4.311579-9.539368 9.701052-9.539368h464.410948c5.389474 0 9.701053 4.311579 9.701052 9.485474v52.277894c0 5.281684-4.311579 9.539368-9.701052 9.539369"  /></svg>
