<?xml version="1.0" standalone="no"?><!DOCTYPE svg PUBLIC "-//W3C//DTD SVG 1.1//EN" "http://www.w3.org/Graphics/SVG/1.1/DTD/svg11.dtd"><svg class="icon" width="200px" height="200.00px" viewBox="0 0 1024 1024" version="1.1" xmlns="http://www.w3.org/2000/svg"><path d="M788.533895 447.649684H227.435789c-5.389474 0-9.701053-4.257684-9.701052-9.485473v-52.277895c0-5.281684 4.311579-9.539368 9.701052-9.539369H788.48c5.389474 0 9.701053 4.311579 9.701053 9.539369v52.277895c0 5.227789-4.311579 9.485474-9.701053 9.485473M788.533895 281.330526H227.435789c-5.389474 0-9.701053-4.311579-9.701052-9.539368v-52.277895c0-5.281684 4.311579-9.539368 9.701052-9.539368H788.48c5.389474 0 9.701053 4.311579 9.701053 9.539368v52.277895c0 5.227789-4.311579 9.485474-9.701053 9.485474M691.792842 614.022737H227.435789c-5.389474 0-9.701053-4.311579-9.701052-9.539369v-52.277894c0-5.227789 4.311579-9.485474 9.701052-9.485474h464.410948c5.389474 0 9.701053 4.257684 9.701052 9.485474v52.277894c0 5.281684-4.311579 9.539368-9.701052 9.539369"  /><path d="M943.373474 668.133053h-241.879579a29.749895 29.749895 0 0 0-30.019369 29.480421v237.675789H72.542316V79.710316h870.831158v588.422737z m-199.356632 261.281684v-187.553684c0-1.347368 1.077895-2.425263 2.479158-2.425264h190.895158c2.155789 0 3.233684 2.640842 1.724631 4.149895l-190.895157 187.553684c-1.562947 1.509053-4.203789 0.431158-4.20379-1.724631zM0 65.266526v884.412632c0 31.420632 25.869474 56.912842 57.882947 56.912842h708.176842a19.509895 19.509895 0 0 0 13.635369-5.551158l230.561684-226.519579a18.863158 18.863158 0 0 0 5.658947-13.473684V65.266526c0-31.420632-25.869474-56.858947-57.882947-56.858947H57.882947C25.869474 8.407579 0 33.845895 0 65.266526z"  /></svg>
