<?xml version="1.0" standalone="no"?><!DOCTYPE svg PUBLIC "-//W3C//DTD SVG 1.1//EN" "http://www.w3.org/Graphics/SVG/1.1/DTD/svg11.dtd"><svg class="icon" width="200px" height="190.16px" viewBox="0 0 1077 1024" version="1.1" xmlns="http://www.w3.org/2000/svg"><path d="M1008.262737 8.730947H61.116632C27.378526 8.730947 0 35.301053 0 68.015158v745.687579c0 32.768 27.378526 59.284211 61.116632 59.28421h331.560421l111.993263 123.850106c8.084211 8.946526 19.348211 13.473684 30.558316 13.473684a41.067789 41.067789 0 0 0 30.61221-13.473684l111.993263-123.796211h330.428632c33.792 0 61.170526-26.570105 61.170526-59.28421V67.961263c0-32.714105-27.378526-59.284211-61.170526-59.28421m-10.725053 69.685894v724.884211H645.281684l-21.450105 23.713684-88.602947 97.980632-88.549053-97.926737-21.450105-23.713684H71.841684V78.416842H997.591579"  /><path d="M539.270737 495.562105L466.836211 299.223579h-2.640843L391.114105 495.562105h148.156632z m-31.043369-275.402105l176.559158 447.865263h-80.842105l-42.037895-112.262737H368.478316l-42.037895 112.262737h-80.842105l176.559158-447.865263H508.227368z"  /><path d="M736.471579 668.025263h73.728V343.740632h-73.728v324.284631z m73.081263-443.445895a45.648842 45.648842 0 0 1 14.228211 33.845895 45.271579 45.271579 0 0 1-14.874948 34.492632 50.714947 50.714947 0 0 1-35.570526 13.20421 50.661053 50.661053 0 0 1-35.570526-13.20421 45.594947 45.594947 0 0 1-14.228211-34.492632c0-13.797053 4.527158-25.114947 14.228211-33.845895a50.661053 50.661053 0 0 1 35.570526-13.20421c14.228211 0 26.516211 4.419368 36.217263 13.20421z"  /></svg>
