<?xml version="1.0" standalone="no"?><!DOCTYPE svg PUBLIC "-//W3C//DTD SVG 1.1//EN" "http://www.w3.org/Graphics/SVG/1.1/DTD/svg11.dtd"><svg class="icon" width="200px" height="200.00px" viewBox="0 0 1024 1024" version="1.1" xmlns="http://www.w3.org/2000/svg"><path d="M699.23232313 429.97979844a146.34343406 146.34343406 0 0 0 19.15151531-183.35353594 4.9292925 4.9292925 0 0 0-7.51515188-0.72727219l-24.24242437 24.24242344-6.86868656 6.8686875-53.49494907 53.41414125-34.50505125-34.4242425 53.49495-53.49494906 6.86868657-6.8686875 24.24242437-24.24242438a4.9292925 4.9292925 0 0 0-0.64646437-7.51515093 146.34343406 146.34343406 0 0 0-221.17171688 160.7272725l-169.13131312 168.88888875a4.76767688 4.76767688 0 0 0 0 6.86868656l96.96969656 96.9696975a4.76767688 4.76767688 0 0 0 6.86868656 0L557.81818156 468.36363594a146.02020187 146.02020187 0 0 0 141.41414156-38.3838375z m-152.96969719-19.39393969l-22.86868688 22.86868688-12.36363562 12.36363656-125.65656563 125.57575687-34.4242425-34.50505031L476.44444438 411.31313094l12.36363656-12.36363563 22.86868687-22.86868687A97.45454531 97.45454531 0 0 1 589.57575781 229.25252562L536.72727312 282.50505031a19.4747475 19.4747475 0 0 0 1e-8 27.63636375l75.79797937 75.79798032a19.63636406 19.63636406 0 0 0 27.63636375 0l52.9292925-52.92929344a97.45454531 97.45454531 0 0 1-146.82828281 77.89899z"  /><path d="M929.454545 96.64646469v649.21212094H96.64646469V96.64646469h832.80808031m9.6161625-64.64646469H86.94949531A55.03030313 55.03030313 0 0 0 32 86.94949531v668.52525188a55.03030313 55.03030313 0 0 0 54.94949531 55.03030312h852.12121219a55.03030313 55.03030313 0 0 0 55.03030219-55.03030312V86.94949531a55.03030313 55.03030313 0 0 0-55.03030219-54.94949531z"  /><path d="M718.86868719 900.36363594H558.86868688v-145.45454531H467.23232281v145.45454531H307.15151469a23.27272688 23.27272688 0 0 0-23.19191907 23.27272781v59.31313125a9.13131281 9.13131281 0 0 0 9.13131375 9.050505h439.91919188a9.050505 9.050505 0 0 0 9.050505-9.050505v-59.31313125a23.19191906 23.19191906 0 0 0-23.19191906-23.27272781z"  /></svg>
