<?xml version="1.0" standalone="no"?><!DOCTYPE svg PUBLIC "-//W3C//DTD SVG 1.1//EN" "http://www.w3.org/Graphics/SVG/1.1/DTD/svg11.dtd"><svg class="icon" width="200px" height="200.00px" viewBox="0 0 1024 1024" version="1.1" xmlns="http://www.w3.org/2000/svg"><path d="M317.744 309.872H245.168a9.024 9.024 0 0 1-9.072-9.024V48.992C236.096 44 240.176 39.968 245.216 39.968h72.528c5.04 0 9.072 4.032 9.072 9.024V300.8a9.024 9.024 0 0 1-9.072 9.024"  /><path d="M771.296 309.872H698.72a9.024 9.024 0 0 1-9.072-9.024V48.992C689.648 44 693.776 39.968 698.768 39.968h72.528c4.992 0 9.072 4.032 9.072 9.024V300.8a9.024 9.024 0 0 1-9.072 9.024"  /><path d="M670.592 420.176l-107.952 196.704h59.376c5.28 0 9.648 4.32 9.648 9.6v25.536c0 5.28-4.32 9.6-9.648 9.6h-79.056v40.416h79.056c5.28 0 9.648 4.32 9.648 9.6v25.488c0 5.28-4.32 9.6-9.648 9.6h-79.056v64.464c0 5.28-4.32 9.6-9.696 9.6h-49.92a9.648 9.648 0 0 1-9.648-9.6V746.72h-78.72a9.648 9.648 0 0 1-9.6-9.6v-25.536c0-5.28 4.32-9.6 9.6-9.6h78.72v-40.368h-78.72a9.648 9.648 0 0 1-9.6-9.6v-25.536c0-5.28 4.32-9.6 9.6-9.6h58.752L345.824 420.32a9.6 9.6 0 0 1 3.84-13.056 8.736 8.736 0 0 1 4.608-1.2h55.584c3.648 0 6.912 2.016 8.64 5.28l88.656 174.24h3.408l88.704-174.24a9.552 9.552 0 0 1 8.64-5.28h54.336c5.472 0 9.696 4.32 9.6 9.6 0 1.536-0.48 3.072-1.248 4.512m259.44-267.84H86.432A54.24 54.24 0 0 0 32 206.384V930.56a54.24 54.24 0 0 0 54.432 54h843.6a54.24 54.24 0 0 0 54.384-54V206.336a54.24 54.24 0 0 0-54.384-53.952"  /></svg>
