<?xml version="1.0" standalone="no"?><!DOCTYPE svg PUBLIC "-//W3C//DTD SVG 1.1//EN" "http://www.w3.org/Graphics/SVG/1.1/DTD/svg11.dtd"><svg class="icon" width="200px" height="200.00px" viewBox="0 0 1024 1024" version="1.1" xmlns="http://www.w3.org/2000/svg"><path d="M662.24 401.168h-54.384a9.504 9.504 0 0 0-8.592 5.28L510.56 582.272H507.2L418.4 406.496a9.648 9.648 0 0 0-8.592-5.328H354.272a9.744 9.744 0 0 0-8.448 14.4l107.904 198.24H395.024c-5.328 0-9.696 4.32-9.696 9.6v25.776c0 5.28 4.32 9.648 9.696 9.648h78.72v40.752h-78.72c-5.328 0-9.696 4.32-9.696 9.696v25.728c0 5.28 4.32 9.648 9.696 9.648h78.72v65.04c0 5.28 4.32 9.648 9.6 9.648h49.92c5.328 0 9.696-4.32 9.696-9.648v-65.04h79.056c5.28 0 9.648-4.32 9.648-9.648v-25.728c0-5.328-4.32-9.696-9.648-9.696h-79.056v-40.752h79.056c5.28 0 9.648-4.32 9.648-9.648v-25.728c0-5.328-4.32-9.696-9.648-9.696h-59.376l107.952-198.336a10.416 10.416 0 0 0 1.2-4.608 9.456 9.456 0 0 0-9.552-9.648"  /><path d="M916.4 916.4H100.016V213.44h136.08V295.04a9.12 9.12 0 0 0 9.072 9.12h72.576a9.12 9.12 0 0 0 9.072-9.12v-81.6H689.6v81.6a9.12 9.12 0 0 0 9.072 9.12H771.2a9.12 9.12 0 0 0 9.12-9.12v-81.6h136.032v702.96z m13.488-771.024h-149.52V41.12A9.12 9.12 0 0 0 771.2 32H698.72a9.12 9.12 0 0 0-9.12 9.072v104.304H326.864V41.12A9.12 9.12 0 0 0 317.696 32H245.216a9.12 9.12 0 0 0-9.072 9.072v104.304H86.528C56.432 145.376 32 169.808 32 199.904v730.032c0 30.096 24.384 54.528 54.528 54.528h843.36c30.144 0 54.576-24.432 54.576-54.528V199.904c0-30.096-24.432-54.528-54.576-54.528z"  /></svg>
