<?xml version="1.0" standalone="no"?><!DOCTYPE svg PUBLIC "-//W3C//DTD SVG 1.1//EN" "http://www.w3.org/Graphics/SVG/1.1/DTD/svg11.dtd"><svg class="icon" width="200px" height="200.00px" viewBox="0 0 1024 1024" version="1.1" xmlns="http://www.w3.org/2000/svg"><path d="M397.2450575 99.95256875v297.29248875H99.95256875V99.95256875h297.29248875m10.19288531-67.95256875H89.75968344A57.84462375 57.84462375 0 0 0 32 89.75968344v317.84814A57.75968344 57.75968344 0 0 0 89.75968344 465.19762625h317.84814a57.67474312 57.67474312 0 0 0 57.75968343-57.75968344V89.75968344a57.75968344 57.75968344 0 0 0-57.75968343-57.75968344zM927.1901525 626.58497656v297.29248875h-297.29248781V626.58497656h297.29248781m10.107945-67.95256875H619.53489781a57.84462375 57.84462375 0 0 0-57.84462469 57.75968344v317.84814a57.75968344 57.75968344 0 0 0 57.84462469 57.75968344h317.76319969a57.75968344 57.75968344 0 0 0 57.84462375-57.75968344V616.39209125a57.84462375 57.84462375 0 0 0-57.84462375-57.75968344zM397.2450575 626.58497656v297.29248875H99.95256875V626.58497656h297.29248875m10.19288531-67.95256875H89.75968344A57.84462375 57.84462375 0 0 0 32 616.39209125v317.84814A57.75968344 57.75968344 0 0 0 89.75968344 991.83003406h317.84814a57.67474312 57.67474312 0 0 0 57.75968343-57.75968343V616.39209125a57.75968344 57.75968344 0 0 0-57.75968343-57.75968344zM778.3740275 99.95256875a148.73118469 148.73118469 0 1 1-148.73118563 148.73118469A148.98600656 148.98600656 0 0 1 778.3740275 99.95256875m0-67.95256875a216.68375344 216.68375344 0 1 0 216.76869375 216.68375344A216.68375344 216.68375344 0 0 0 778.3740275 32z"  /></svg>
