<?xml version="1.0" standalone="no"?><!DOCTYPE svg PUBLIC "-//W3C//DTD SVG 1.1//EN" "http://www.w3.org/Graphics/SVG/1.1/DTD/svg11.dtd"><svg class="icon" width="200px" height="200.00px" viewBox="0 0 1024 1024" version="1.1" xmlns="http://www.w3.org/2000/svg"><path d="M400.9431575 462.23157875H88.74105219C57.41473719 462.23157875 32 437.06947344 32 405.99578938V96.52210531C32 65.44842125 57.41473719 40.28631594 88.74105219 40.28631594h312.20210531c31.32631594 0 56.74105219 25.16210531 56.74105313 56.23578937v309.47368406c0 31.07368406-25.41473719 56.23578938-56.74105313 56.23578938"  /><path d="M921.16210531 462.28210531H609.01052656c-31.32631594 0-56.74105219-25.2631575-56.74105312-56.28631593V96.52210531C552.26947344 65.44842125 577.68421063 40.28631594 609.01052656 40.28631594h312.15157875c31.32631594 0 56.79157875 25.16210531 56.79157875 56.23578937v309.47368406c0 31.07368406-25.41473719 56.28631594-56.79157875 56.28631594"  /><path d="M921.16210531 975.0231575H609.01052656c-31.32631594 0-56.74105219-25.2631575-56.74105312-56.286315V609.2631575C552.26947344 578.18947344 577.68421063 553.02736813 609.01052656 553.02736813h312.15157875c31.32631594 0 56.79157875 25.16210531 56.79157875 56.23578937v309.473685c0 31.07368406-25.41473719 56.28631594-56.79157875 56.286315"  /><path d="M400.9431575 975.0231575H88.74105219C57.41473719 975.0231575 32 949.81052656 32 918.7368425v-309.42315844c0-31.07368406 25.41473719-56.28631594 56.74105219-56.28631594h312.20210531c31.32631594 0 56.74105219 25.21263187 56.74105313 56.28631594v309.42315844c0 31.07368406-25.41473719 56.28631594-56.74105313 56.286315"  /></svg>
