<?xml version="1.0" standalone="no"?><!DOCTYPE svg PUBLIC "-//W3C//DTD SVG 1.1//EN" "http://www.w3.org/Graphics/SVG/1.1/DTD/svg11.dtd"><svg class="icon" width="200px" height="200.00px" viewBox="0 0 1024 1024" version="1.1" xmlns="http://www.w3.org/2000/svg"><path d="M771.125895 650.563368s-91.674947 179.577263-260.688842 265.216l-0.161685 0.10779-0.161684-0.10779c-169.013895-85.638737-260.688842-265.216-260.688842-265.216-148.048842-254.113684-2.640842-425.391158-2.640842-425.391157 99.274105-141.042526 261.497263-134.305684 263.491368-134.197895 1.994105-0.107789 164.217263-6.844632 263.545264 134.197895 0 0 145.354105 171.277474-2.694737 425.391157m63.110737-477.184C712.165053 0 512.754526 8.299789 510.275368 8.407579 507.796211 8.299789 308.385684-0.053895 186.314105 173.379368c0 0-178.822737 210.620632 3.233684 523.048421 0 0 112.747789 196.446316 320.512 301.756632v0.215579l0.215579-0.107789 0.215579 0.107789v-0.215579c207.764211-105.310316 320.512-301.756632 320.512-301.756632 182.056421-312.427789 3.233684-523.048421 3.233685-523.048421"  /><path d="M510.275368 588.584421c-88.602947 0-160.390737-73.835789-160.390736-165.025684 0-91.082105 71.787789-164.971789 160.390736-164.97179s160.444632 73.835789 160.444632 164.97179c0 91.136-71.841684 165.025684-160.444632 165.025684m0-400.707368c-126.544842 0-229.160421 105.525895-229.160421 235.681684 0 130.209684 102.615579 235.735579 229.160421 235.735579s229.160421-105.525895 229.160421-235.735579c0-130.155789-102.615579-235.681684-229.160421-235.681684"  /></svg>
