<?xml version="1.0" standalone="no"?><!DOCTYPE svg PUBLIC "-//W3C//DTD SVG 1.1//EN" "http://www.w3.org/Graphics/SVG/1.1/DTD/svg11.dtd"><svg class="icon" width="200px" height="200.00px" viewBox="0 0 1024 1024" version="1.1" xmlns="http://www.w3.org/2000/svg"><path d="M780.34526281 454.80421062v49.61684157a9.09473719 9.09473719 0 0 1-9.09473625 8.993685H426.61052656c-5.00210531 0-9.04421062-4.04210531-9.04421062-8.993685v-49.61684157c0-5.00210531 4.04210531-9.04421062 9.09473625-9.04421062h344.64c5.05263187 0 9.09473719 4.04210531 9.09473719 9.04421062M326.82105219 479.61263187a45.22105219 45.22105219 0 0 1-45.37263094 45.06947344 45.22105219 45.22105219 0 0 1-45.37263188-45.06947344c0-24.90947344 20.31157875-45.12 45.37263188-45.12s45.37263188 20.21052656 45.37263094 45.12M780.34526281 635.1831575v49.56631594a9.09473719 9.09473719 0 0 1-9.09473625 9.04421062H426.61052656c-5.00210531 0-9.04421062-4.04210531-9.04421062-9.04421062v-49.56631594c0-5.00210531 4.04210531-9.04421062 9.09473625-9.04420969h344.64c5.05263187 0 9.09473719 4.04210531 9.09473719 9.04420969M326.82105219 659.99157875a45.22105219 45.22105219 0 0 1-45.37263094 45.06947344 45.22105219 45.22105219 0 0 1-45.37263188-45.06947344c0-24.90947344 20.31157875-45.12 45.37263188-45.12s45.37263188 20.21052656 45.37263094 45.12"  /><path d="M916.41263187 919.29263187H100.00842125V220.36210531H236.12631594v81.14526281c0 5.00210531 4.04210531 9.04421062 9.09473625 9.04421063h72.55579031c5.05263187 0 9.09473719-4.04210531 9.09473625-9.04421063V220.36210531h362.77894781v81.14526281c0 5.00210531 4.09263187 9.04421062 9.09473625 9.04421063h72.55578938c5.05263187 0 9.09473719-4.04210531 9.09473718-9.04421063V220.36210531h136.06736813v698.93052656zM929.85263187 152.70736813h-149.55789468V48.9768425a9.09473719 9.09473719 0 0 0-9.09473719-8.993685h-72.55578938c-5.00210531 0-9.09473719 4.04210531-9.09473718 8.993685V152.70736813h-362.77894688V48.9768425a9.09473719 9.09473719 0 0 0-9.09473719-8.993685H245.22105219c-5.05263187 0-9.09473719 4.04210531-9.09473625 8.993685V152.70736813H86.56842125C56.40421063 152.70736813 32 176.96 32 206.92210531v725.76c0 29.96210531 24.40421063 54.21473719 54.56842125 54.21473719H929.85263187c30.11368406 0 54.56842125-24.25263187 54.56842032-54.21473719V206.92210531c0-29.96210531-24.45473719-54.21473719-54.56842031-54.21473719z"  /></svg>
