<?xml version="1.0" standalone="no"?><!DOCTYPE svg PUBLIC "-//W3C//DTD SVG 1.1//EN" "http://www.w3.org/Graphics/SVG/1.1/DTD/svg11.dtd"><svg class="icon" width="200px" height="200.00px" viewBox="0 0 1024 1024" version="1.1" xmlns="http://www.w3.org/2000/svg"><path d="M317.744 309.872H245.168a9.024 9.024 0 0 1-9.072-9.024V48.992C236.096 44 240.176 39.968 245.216 39.968h72.528c5.04 0 9.072 4.032 9.072 9.024V300.8a9.024 9.024 0 0 1-9.072 9.024"  /><path d="M771.296 309.872H698.72a9.024 9.024 0 0 1-9.072-9.024V48.992C689.648 44 693.776 39.968 698.768 39.968h72.528c4.992 0 9.072 4.032 9.072 9.024V300.8a9.024 9.024 0 0 1-9.072 9.024"  /><path d="M780.32 503.216a9.024 9.024 0 0 1-9.024 8.976H426.56a9.024 9.024 0 0 1-9.024-8.976V453.728c0-4.944 4.032-8.976 9.024-8.976h344.736c4.992 0 9.072 4.032 9.072 8.976v49.44z m0 179.904a9.024 9.024 0 0 1-9.024 8.976H426.56a9.024 9.024 0 0 1-9.024-8.976v-49.44c0-4.992 4.032-9.024 9.024-9.024h344.736c4.992 0 9.072 4.032 9.072 8.976v49.488zM281.504 523.424a45.12 45.12 0 0 1-45.36-44.976c0-24.816 20.304-44.976 45.36-44.976s45.36 20.16 45.36 44.976a45.12 45.12 0 0 1-45.36 44.976z m0 179.952a45.168 45.168 0 0 1-45.36-44.976 45.12 45.12 0 0 1 45.36-44.976 45.12 45.12 0 0 1 45.36 44.976 45.168 45.168 0 0 1-45.36 44.976zM930.032 152.336H86.432A54.24 54.24 0 0 0 32 206.336v724.176a54.24 54.24 0 0 0 54.432 53.952h843.6a54.24 54.24 0 0 0 54.432-53.952V206.336A54.24 54.24 0 0 0 930.032 152.384z"  /></svg>
