<?xml version="1.0" standalone="no"?><!DOCTYPE svg PUBLIC "-//W3C//DTD SVG 1.1//EN" "http://www.w3.org/Graphics/SVG/1.1/DTD/svg11.dtd"><svg class="icon" width="200px" height="200.00px" viewBox="0 0 1024 1024" version="1.1" xmlns="http://www.w3.org/2000/svg"><path d="M943.373474 516.958316v418.330947H72.596211V79.710316h425.768421a9.539368 9.539368 0 0 0 9.593263-9.431579V17.839158a9.539368 9.539368 0 0 0-9.593263-9.431579H57.936842C25.869474 8.407579 0 33.899789 0 65.320421v884.358737c0 31.420632 25.923368 56.912842 57.936842 56.912842h900.042105c32.013474 0 57.936842-25.492211 57.936842-56.912842v-432.774737a9.539368 9.539368 0 0 0-9.593263-9.377684h-53.355789a9.539368 9.539368 0 0 0-9.593263 9.431579"  /><path d="M888.293053 332.8l27.378526-215.093895a9.593263 9.593263 0 0 0-10.778947-10.617263l-218.920421 26.947369a9.431579 9.431579 0 0 0-5.658948 16.114526l70.170948 68.877474-335.225264 329.350736 51.30779 50.445474 335.225263-329.404632 70.063158 68.931369c5.712842 5.551158 15.467789 2.317474 16.437895-5.551158"  /></svg>
