<?xml version="1.0" standalone="no"?><!DOCTYPE svg PUBLIC "-//W3C//DTD SVG 1.1//EN" "http://www.w3.org/Graphics/SVG/1.1/DTD/svg11.dtd"><svg class="icon" width="200px" height="200.00px" viewBox="0 0 1024 1024" version="1.1" xmlns="http://www.w3.org/2000/svg"><path d="M32 86.99076125v850.0184775a54.99076125 54.99076125 0 0 0 54.99076125 54.99076125h850.0184775a55.07139281 55.07139281 0 0 0 54.99076125-54.99076125V86.99076125A54.99076125 54.99076125 0 0 0 937.00923875 32H86.99076125A54.99076125 54.99076125 0 0 0 32 86.99076125z m891.38249625 836.391735H100.53687219V100.53687219h822.84562406z"  /><path d="M685.11607625 923.38249625V631.17352625h123.44700094l18.54527156-143.52427406H685.11607625V395.97110656c0-41.60591344 11.53032094-69.90760969 71.11708312-69.90760875h75.95498063V197.69796781a1002.57349219 1002.57349219 0 0 0-110.78783719-5.72484469c-109.57836375 0-184.64639719 66.92424-184.64639718 189.72618844V487.56862063H412.66185125v143.4436425h124.01142281v292.37023312"  /></svg>
