<?xml version="1.0" standalone="no"?><!DOCTYPE svg PUBLIC "-//W3C//DTD SVG 1.1//EN" "http://www.w3.org/Graphics/SVG/1.1/DTD/svg11.dtd"><svg class="icon" width="200px" height="200.00px" viewBox="0 0 1024 1024" version="1.1" xmlns="http://www.w3.org/2000/svg"><path d="M376.883673 643.431732c-93.695672 0-169.625006-76.441332-169.625006-170.751402 0-94.31007 75.929334-170.751402 169.625006-170.751403s169.625006 76.441332 169.625006 170.751403c0 94.31007-75.929334 170.751402-169.625006 170.751402m0-417.380939c-135.321126 0-245.042342 110.438013-245.042342 246.629537s109.721216 246.629537 245.042342 246.629536 245.042342-110.438013 245.042342-246.629536-109.721216-246.629537-245.042342-246.629537"  /><path d="M70.964744 1021.23521a4.454384 4.454384 0 0 0 4.454384-4.403185c3.174389-164.863423 136.908321-297.522159 301.464545-297.522159s298.290156 132.607536 301.464545 297.470959a4.454384 4.454384 0 0 0 4.454384 4.454385h66.406168c2.559991 0 4.607984-2.047993 4.556784-4.607984C750.437565 809.933549 583.014151 643.329332 376.883673 643.329332S3.32978 809.984749 0.052992 1016.678426c-0.1024 2.559991 1.945593 4.607984 4.505584 4.607983h66.406168z"  /><path d="M693.196166 421.12211a327.115655 327.115655 0 0 1 3.327988 73.215744 4.607984 4.607984 0 0 0 3.686387 4.915183 303.051739 303.051739 0 0 1 242.021553 291.531779c0.0512 2.457591 2.047993 4.403185 4.454385 4.403185h66.406167c2.559991 0 4.607984-2.047993 4.556784-4.607984-3.071989-188.824939-143.103499-344.062796-324.453264-369.457907"  /><path d="M653.413905 0.310783A244.888743 244.888743 0 0 0 416.665934 146.94707a4.556784 4.556784 0 0 0 3.583987 6.297578c22.527921 3.071989 44.287845 8.44797 65.023773 15.923144a4.403185 4.403185 0 0 0 5.427181-2.099193 169.369007 169.369007 0 0 1 163.225028-90.623683c81.970913 6.246378 148.786679 72.703746 155.852255 155.135457a170.853802 170.853802 0 0 1-114.841198 176.946581 4.556784 4.556784 0 0 0-3.07199 5.119982 325.83566 325.83566 0 0 1 5.119983 73.062145 246.527137 246.527137 0 0 0 187.954542-260.760688C875.057929 103.836821 774.91108 6.454761 653.413905 0.310783"  /></svg>
