<?xml version="1.0" standalone="no"?><!DOCTYPE svg PUBLIC "-//W3C//DTD SVG 1.1//EN" "http://www.w3.org/Graphics/SVG/1.1/DTD/svg11.dtd"><svg class="icon" width="200px" height="200.00px" viewBox="0 0 1024 1024" version="1.1" xmlns="http://www.w3.org/2000/svg"><path d="M746.336 576.272a68.016 68.016 0 1 1 0-136.08 68.016 68.016 0 0 1 0 136.08m-238.08 0a68.016 68.016 0 1 1 0-136.08 68.016 68.016 0 0 1 0 136.08m-238.128 0a68.016 68.016 0 1 1 0-136.08 68.016 68.016 0 0 1 0 136.08M508.16 32C245.168 32 32.048 245.216 32.048 508.208c0 263.04 213.12 476.208 476.16 476.208 263.04 0 476.256-213.168 476.256-476.16C984.464 245.168 771.2 32 508.16 32"  /></svg>
