<?xml version="1.0" standalone="no"?><!DOCTYPE svg PUBLIC "-//W3C//DTD SVG 1.1//EN" "http://www.w3.org/Graphics/SVG/1.1/DTD/svg11.dtd"><svg class="icon" width="200px" height="200.00px" viewBox="0 0 1024 1024" version="1.1" xmlns="http://www.w3.org/2000/svg"><path d="M338.18947344 513.41473719c0 37.38947344-30.51789469 67.65473719-68.05894688 67.65473625-37.59157875 0-68.05894781-30.31578937-68.05894781-67.65473625 0-37.38947344 30.46736813-67.65473719 68.05894781-67.65473719 37.54105219 0 68.00842125 30.31578937 68.00842125 67.70526281M576.26947344 513.41473719c0 37.38947344-30.46736813 67.65473719-68.05894688 67.65473625-37.54105219 0-68.00842125-30.31578937-68.00842125-67.65473625 0-37.38947344 30.46736813-67.65473719 68.00842125-67.65473719 37.59157875 0 68.05894781 30.31578937 68.05894688 67.70526281M814.34947344 513.41473719c0 37.38947344-30.46736813 67.65473719-68.00842125 67.65473625-37.59157875 0-68.05894781-30.31578937-68.05894688-67.65473625 0-37.38947344 30.46736813-67.65473719 68.05894688-67.65473719 37.54105219 0 68.00842125 30.31578937 68.00842125 67.70526281"  /><path d="M508.21052656 39.9831575C245.22105219 39.9831575 32 251.94105219 32 513.41473719c0 261.52421063 213.22105219 473.48210531 476.21052656 473.48210531 263.04 0 476.21052656-211.95789469 476.21052563-473.43157969 0-261.52421063-213.22105219-473.48210531-476.21052563-473.48210531m0 63.66315844c227.31789469 0 412.24421062 183.81473719 412.24421063 409.76842125 0 226.00421062-184.92631594 409.86947344-412.24421063 409.86947344-227.26736813 0-412.19368406-183.86526281-412.19368406-409.86947344 0-225.95368406 184.92631594-409.76842125 412.19368406-409.76842125"  /></svg>
