<?xml version="1.0" standalone="no"?><!DOCTYPE svg PUBLIC "-//W3C//DTD SVG 1.1//EN" "http://www.w3.org/Graphics/SVG/1.1/DTD/svg11.dtd"><svg class="icon" width="200px" height="180.12px" viewBox="0 0 1137 1024" version="1.1" xmlns="http://www.w3.org/2000/svg"><path d="M1111.3592675 732.59496594h-80.45766563V543.3043475H615.79862656V395.29519438h355.51487438a20.77803187 20.77803187 0 0 0 20.68649906-20.77803188V52.68649906A20.68649906 20.68649906 0 0 0 971.31350094 32H182.48054938a20.77803187 20.77803187 0 0 0-20.77803188 20.68649906v321.83066344a20.77803187 20.77803187 0 0 0 20.77803187 20.77803187h355.51487438v148.00915313H122.80091563v189.29061844H42.34324906A10.34324906 10.34324906 0 0 0 32 742.938215v238.71853594a10.43478281 10.43478281 0 0 0 10.34324906 10.34324906h238.71853594a10.43478281 10.43478281 0 0 0 10.43478281-10.34324906V742.938215a10.34324906 10.34324906 0 0 0-10.43478281-10.34324906h-80.36613281V621.10755125h337.29977156v111.48741469h-80.45766656a10.34324906 10.34324906 0 0 0-10.43478281 10.34324906v238.71853594a10.43478281 10.43478281 0 0 0 10.43478281 10.34324906h238.71853594a10.43478281 10.43478281 0 0 0 10.34324906-10.34324906V742.938215a10.34324906 10.34324906 0 0 0-10.34324906-10.34324906h-80.45766657V621.10755125h337.29977157v111.48741469h-80.45766563a10.34324906 10.34324906 0 0 0-10.34325 10.34324906v238.71853594a10.43478281 10.43478281 0 0 0 10.34325 10.34324906h238.718535a10.43478281 10.43478281 0 0 0 10.43478281-10.34324906V742.938215a10.34324906 10.34324906 0 0 0-10.43478281-10.34324906zM239.59725406 317.40045781V109.80320375h674.59954219v207.59725406zM211.03890125 810.03203656a2.56292906 2.56292906 0 0 1 2.56292906 2.56292907v98.94736875a2.56292906 2.56292906 0 0 1-2.56292906 2.65446187H112.45766563a2.65446187 2.65446187 0 0 1-2.65446188-2.65446187V812.96109875a2.65446187 2.65446187 0 0 1 2.65446187-2.92906219z m415.10297531 0a2.65446187 2.65446187 0 0 1 2.65446188 2.56292907v98.94736875a2.65446187 2.65446187 0 0 1-2.65446188 2.65446187H527.56064094a2.65446187 2.65446187 0 0 1-2.56292907-2.65446187V812.96109875a2.65446187 2.65446187 0 0 1 2.56292907-2.56292906z m417.75743719 100.68649875a2.65446187 2.65446187 0 0 1-2.56292906 2.65446282H942.75514906a2.65446187 2.65446187 0 0 1-2.65446281-2.65446282V812.96109875a2.65446187 2.65446187 0 0 1 2.65446281-2.92906219h98.58123563a2.65446187 2.65446187 0 0 1 2.56292906 2.56292907z"  /></svg>
