<?xml version="1.0" standalone="no"?><!DOCTYPE svg PUBLIC "-//W3C//DTD SVG 1.1//EN" "http://www.w3.org/Graphics/SVG/1.1/DTD/svg11.dtd"><svg class="icon" width="200px" height="200.00px" viewBox="0 0 1024 1024" version="1.1" xmlns="http://www.w3.org/2000/svg"><path d="M252.550737 222.315789a71.841684 71.841684 0 0 1-72.380632-71.302736c0-39.343158 32.336842-71.302737 72.380632-71.302737 39.936 0 72.326737 31.905684 72.326737 71.302737 0 39.343158-32.390737 71.302737-72.326737 71.302736m0-213.962105C172.570947 8.407579 107.789474 72.326737 107.789474 151.066947c0 78.740211 64.781474 142.605474 144.761263 142.605474 79.925895 0 144.707368-63.865263 144.707368-142.605474 0-78.740211-64.781474-142.605474-144.707368-142.605473"  /><path d="M252.550737 935.289263a71.841684 71.841684 0 0 1-72.380632-71.302737c0-39.343158 32.336842-71.302737 72.380632-71.302737 39.936 0 72.326737 31.905684 72.326737 71.302737 0 39.343158-32.390737 71.302737-72.326737 71.302737m0-213.90821C172.570947 721.381053 107.789474 785.246316 107.789474 863.986526 107.789474 942.726737 172.570947 1006.592 252.550737 1006.592c79.925895 0 144.707368-63.865263 144.707368-142.605474 0-78.740211-64.781474-142.605474-144.707368-142.605473"  /><path d="M771.125895 310.379789a71.841684 71.841684 0 0 1-72.326737-71.302736c0-39.343158 32.336842-71.302737 72.326737-71.302737 39.989895 0 72.380632 31.905684 72.380631 71.302737 0 39.343158-32.390737 71.302737-72.380631 71.302736m0-213.90821c-79.925895 0-144.707368 63.865263-144.707369 142.605474 0 78.740211 64.781474 142.605474 144.707369 142.605473 79.979789 0 144.761263-63.865263 144.761263-142.605473 0-78.740211-64.781474-142.605474-144.761263-142.605474"  /><path d="M734.962526 343.686737v138.509474l-446.248421 144.761263V270.497684H216.333474v476.645053h72.380631v-45.109895l492.058948-159.63621a38.157474 38.157474 0 0 0 26.570105-36.163369V343.686737h-72.380632z"  /></svg>
