<?xml version="1.0" standalone="no"?><!DOCTYPE svg PUBLIC "-//W3C//DTD SVG 1.1//EN" "http://www.w3.org/Graphics/SVG/1.1/DTD/svg11.dtd"><svg class="icon" width="200px" height="190.16px" viewBox="0 0 1077 1024" version="1.1" xmlns="http://www.w3.org/2000/svg"><path d="M502.643522 603.62946a286.822053 286.822053 0 0 1 0-439.287214c107.410062-90.972496 268.713784-90.972496 376.069953 0a286.822053 286.822053 0 0 1 0 439.287214c-107.356169 91.02639-268.65989 91.02639-376.069953 0m461.868658 52.061275a382.267723 382.267723 0 0 0-20.156229-562.05697c-141.201386-122.015244-354.458595-125.19497-498.947494-7.006175a382.267723 382.267723 0 0 0-60.576473 532.900499l-70.600693 70.115651-105.092635-104.230337a12.826691 12.826691 0 0 0-18.054376 0l-50.390571 50.013316a12.611116 12.611116 0 0 0 0 17.892695l105.038741 104.28423-68.444947 67.90601-105.092635-104.230336a12.880584 12.880584 0 0 0-18.054375 0l-50.390572 49.959421a12.611116 12.611116 0 0 0 0 17.946589l105.092635 104.230336L49.451744 952.321434a12.66501 12.66501 0 0 0 0 18.054375l50.282784 49.905529a12.934478 12.934478 0 0 0 18.162163 0l59.390812-58.90577 68.444947-67.90601 68.444947-67.959904 68.444947-67.90601 70.654587-70.115651c151.980118 117.272602 371.596779 106.709445 511.181355-31.797258"  /></svg>
