<?xml version="1.0" standalone="no"?><!DOCTYPE svg PUBLIC "-//W3C//DTD SVG 1.1//EN" "http://www.w3.org/Graphics/SVG/1.1/DTD/svg11.dtd"><svg class="icon" width="200px" height="200.00px" viewBox="0 0 1024 1024" version="1.1" xmlns="http://www.w3.org/2000/svg"><path d="M927.34454844 210.730265v716.61404156H96.49469938V210.730265h830.84984906m9.59355-64.4944575H86.82053094A54.90090656 54.90090656 0 0 0 32.00024187 201.29795094v735.8011425a54.90090656 54.90090656 0 0 0 54.82028907 54.90090656h850.1175675a54.90090656 54.90090656 0 0 0 54.9009075-54.90090656V201.29795094a54.90090656 54.90090656 0 0 0-54.9009075-54.90090657z"  /><path d="M237.65694312 32m9.10984219 0l73.20120938 0q9.10984219 0 9.10984218 9.10984219l0 256.04299594q0 9.10984219-9.10984218 9.10984218l-73.20120938 0q-9.10984219 0-9.10984218-9.10984219l0-256.04299593q0-9.10984219 9.10984218-9.10984219Z"  /><path d="M694.6807925 32m9.10984219 0l73.20120937 0q9.10984219 0 9.10984219 9.10984219l0 256.04299594q0 9.10984219-9.10984219 9.10984218l-73.20120937 0q-9.10984219 0-9.10984219-9.10984219l0-256.04299593q0-9.10984219 9.10984219-9.10984219Z"  /><path d="M856.80373531 858.7383275a366.73160906 366.73160906 0 0 0-222.10278843-223.15082344 182.8417875 182.8417875 0 1 0-245.56264688 0 366.8122275 366.8122275 0 0 0-222.18340594 223.15082344 5.64326531 5.64326531 0 0 0 5.3207925 7.33624406h59.25428344a9.02922375 9.02922375 0 0 0 8.06180719-5.40141094 296.99697656 296.99697656 0 0 1 272.08599281-177.35975812 297.1582125 297.1582125 0 0 1 272.08599187 177.35975813 8.86798781 8.86798781 0 0 0 8.06180719 5.40141093h59.25428344a5.56264687 5.56264687 0 0 0 5.72388281-7.33624406z m-459.52300968-358.58918438a114.31642594 114.31642594 0 1 1 114.63889781 114.23580844 114.2358075 114.2358075 0 0 1-114.31642594-114.23580843z"  /></svg>
