<?xml version="1.0" standalone="no"?><!DOCTYPE svg PUBLIC "-//W3C//DTD SVG 1.1//EN" "http://www.w3.org/Graphics/SVG/1.1/DTD/svg11.dtd"><svg class="icon" width="200px" height="200.00px" viewBox="0 0 1024 1024" version="1.1" xmlns="http://www.w3.org/2000/svg"><path d="M929.454545 96.64646469v649.21212094H96.64646469V96.64646469h832.80808031m9.6161625-64.64646469H86.94949531A55.03030313 55.03030313 0 0 0 32 86.94949531v668.52525188a55.03030313 55.03030313 0 0 0 54.94949531 55.03030312h852.12121219a55.03030313 55.03030313 0 0 0 55.03030219-55.03030312V86.94949531a55.03030313 55.03030313 0 0 0-55.03030219-54.94949531z"  /><path d="M718.86868719 900.36363594H558.86868688v-145.45454531H467.23232281v145.45454531H307.15151469a23.27272688 23.27272688 0 0 0-23.19191907 23.27272781v59.31313125a9.13131281 9.13131281 0 0 0 9.13131375 9.050505h439.91919188a9.050505 9.050505 0 0 0 9.050505-9.050505v-59.31313125a23.19191906 23.19191906 0 0 0-23.19191906-23.27272781zM381.73737406 231.51515188l138.02020125 361.05050437h-63.19191843l-32.88888938-90.50505H272.48484875l-32.88888937 90.50505h-63.19191938L314.82828313 231.51515188z m24.24242438 221.97979781l-56.56565719-158.30303063H347.151515l-56.56565625 158.30303063zM687.11111094 231.51515188c58.66666688 0 102.62626219 16.16161594 133.01010093 48.48484781 28.84848469 30.38383875 43.4747475 74.34343406 43.47474751 132.04040437s-14.62626281 101.09090906-43.4747475 131.95959563c-30.38383875 32.32323187-74.34343406 48.48484875-133.01010094 48.48484875H555.15151531V231.51515188z m-72.72727219 310.46464593h61.65656531c45.01010062 0 77.89899-10.58585812 98.66666625-31.35353531s30.30303-54.14141437 30.30303094-98.58585844-10.18181813-78.86868656-30.38383875-99.151515-53.65656562-30.86868656-98.66666625-30.8686875h-61.65656625z"  /></svg>
