<?xml version="1.0" standalone="no"?><!DOCTYPE svg PUBLIC "-//W3C//DTD SVG 1.1//EN" "http://www.w3.org/Graphics/SVG/1.1/DTD/svg11.dtd"><svg class="icon" width="200px" height="190.16px" viewBox="0 0 1077 1024" version="1.1" xmlns="http://www.w3.org/2000/svg"><path d="M560.19137375 145.08445063l201.11634656 257.57158406 42.97209094 54.97644094 54.88945312-43.49401969 114.38927157-89.85864469-86.98803938 597.52084125H215.9797025L125.33816562 316.0159475 263.38818406 416.13918125l54.36752438 39.49256906 41.31931875-52.97571562L560.19137375 145.08445063m0-113.08445063L304.27256281 359.85791937 32 162.48205906l124.04494406 829.51794094h790.37332313L1067.67959375 162.48205906 816.1971725 359.85791937 560.19137375 32z"  /><path d="M549.83979688 575.06632813a78.28923562 78.28923562 0 1 1-78.28923469 78.28923562 78.28923562 78.28923562 0 0 1 78.28923468-78.28923562m0-69.59043094a147.87966656 147.87966656 0 1 0 147.87966657 147.87966656 147.87966656 147.87966656 0 0 0-147.87966657-147.87966656z"  /></svg>
