<?xml version="1.0" standalone="no"?><!DOCTYPE svg PUBLIC "-//W3C//DTD SVG 1.1//EN" "http://www.w3.org/Graphics/SVG/1.1/DTD/svg11.dtd"><svg class="icon" width="200px" height="200.00px" viewBox="0 0 1024 1024" version="1.1" xmlns="http://www.w3.org/2000/svg"><path d="M264.769536 308.992a243.9168 243.9168 0 1 1 487.936 0 243.9168 243.9168 0 0 1-487.936 0M1017.409536 1012.8896a512.768 512.768 0 0 0-344.3712-424.448 317.0816 317.0816 0 1 0-328.448 0A512.768 512.768 0 0 0 0.065536 1012.8384a9.7792 9.7792 0 0 0 9.728 10.9056H64.065536a9.728 9.728 0 0 0 9.5744-8.5504c28.6208-214.784 212.48-380.5696 435.0976-380.5696 222.6688 0 406.528 165.7856 435.0976 380.5696a9.728 9.728 0 0 0 9.5744 8.5504h54.1696c5.8368 0 10.4448-5.12 9.728-10.9056"  /></svg>
