<?xml version="1.0" standalone="no"?><!DOCTYPE svg PUBLIC "-//W3C//DTD SVG 1.1//EN" "http://www.w3.org/Graphics/SVG/1.1/DTD/svg11.dtd"><svg class="icon" width="200px" height="190.16px" viewBox="0 0 1077 1024" version="1.1" xmlns="http://www.w3.org/2000/svg"><path d="M533.27157875 792.77473719a143.49473719 143.49473719 0 0 1-143.19157875-143.84842125A143.54526281 143.54526281 0 0 1 533.22105219 505.02736812a143.54526281 143.54526281 0 0 1 143.24210531 143.89894782A143.54526281 143.54526281 0 0 1 533.27157875 792.77473719z m257.88631594-433.56631594L543.3768425 40.38736813 295.54526281 359.25894781 32 167.10736812l120.10105219 806.70315844H917.22105219l117.32210531-806.70315843-243.38526281 192.10105312z"  /><path d="M636.496842 658.054737a102.076632 102.076632 0 0 1-101.807158 102.29221c-56.266105 0-101.861053-45.810526-101.861052-102.29221s45.594947-102.292211 101.861052-102.292211 101.861053 45.810526 101.861053 102.292211"  /></svg>
