<?xml version="1.0" standalone="no"?><!DOCTYPE svg PUBLIC "-//W3C//DTD SVG 1.1//EN" "http://www.w3.org/Graphics/SVG/1.1/DTD/svg11.dtd"><svg class="icon" width="200px" height="200.00px" viewBox="0 0 1024 1024" version="1.1" xmlns="http://www.w3.org/2000/svg"><path d="M507.957895 529.461895c-46.888421 0-84.938105-39.073684-84.938106-87.309474 0-48.235789 38.049684-87.309474 84.938106-87.309474 46.888421 0 84.938105 39.073684 84.938105 87.309474 0 48.235789-37.995789 87.309474-84.938105 87.309474m225.118316-23.929263l-42.954106-33.792a195.637895 195.637895 0 0 0 0-59.392l42.954106-33.845895a19.402105 19.402105 0 0 0 4.742736-24.576l-40.690526-72.488421a18.216421 18.216421 0 0 0-23.066947-8.084211l-50.068211 21.396211a182.972632 182.972632 0 0 0-49.960421-29.642105l-7.006316-55.134316a18.647579 18.647579 0 0 0-18.32421-16.545684H467.267368a18.647579 18.647579 0 0 0-18.32421 16.545684L441.936842 265.162105c-18.216421 7.168-34.977684 17.246316-49.798737 29.642106l-50.229894-21.450106a18.216421 18.216421 0 0 0-23.120843 8.084211L278.096842 353.872842a19.402105 19.402105 0 0 0 4.796632 24.576l43.169684 34.061474a195.206737 195.206737 0 0 0 0 58.960842l-43.169684 33.953684a19.402105 19.402105 0 0 0-4.796632 24.629895l40.690526 72.488421c4.634947 8.245895 14.551579 11.695158 23.120843 8.08421l50.229894-21.450105c14.821053 12.395789 31.582316 22.420211 49.744842 29.642105l7.060211 55.457685a18.647579 18.647579 0 0 0 18.32421 16.545684h81.381053a18.647579 18.647579 0 0 0 18.324211-16.545684l7.06021-55.349895c18.216421-7.221895 35.031579-17.246316 49.960421-29.642105l50.068211 21.288421a18.216421 18.216421 0 0 0 23.066947-8.030316l40.690526-72.488421a19.402105 19.402105 0 0 0-4.742736-24.576"  /><path d="M957.871158 8.784842H58.098526C25.977263 8.784842 0 35.516632 0 68.500211V819.631158c0 32.983579 25.977263 59.715368 58.098526 59.715368h314.960842l106.388211 124.712421a37.995789 37.995789 0 0 0 58.098526 0l106.388211-124.712421h313.936842c32.067368 0 58.044632-26.731789 58.044631-59.715368V68.500211c0-32.983579-25.977263-59.715368-58.044631-59.715369m-10.24 70.170947v730.165895h-334.632421l-20.372211 23.875369-84.129684 98.627368-84.129684-98.627368-20.426105-23.875369H68.284632V78.955789h879.400421"  /></svg>
