<?xml version="1.0" standalone="no"?><!DOCTYPE svg PUBLIC "-//W3C//DTD SVG 1.1//EN" "http://www.w3.org/Graphics/SVG/1.1/DTD/svg11.dtd"><svg class="icon" width="200px" height="190.16px" viewBox="0 0 1077 1024" version="1.1" xmlns="http://www.w3.org/2000/svg"><path d="M783.93223625 517.05288125c-39.56208469 0-71.59575188-31.73050969-71.59575188-70.93890938 0-39.20840062 32.03366719-70.98943594 71.59575188-70.98943687s71.59575188 31.78103625 71.59575094 70.98943687S823.49432 517.05288125 783.93223625 517.05288125m-250.61039437 0c-39.56208469 0-71.64627844-31.83156187-71.64627844-70.98943594 0-39.20840062 32.08419375-70.98943594 71.59575187-70.98943594 39.56208469 0 71.64627844 31.78103625 71.6462775 70.98943594S572.8334 517.05288125 533.22078875 517.05288125m-250.61039437 0c-39.56208469 0-71.64627844-31.83156187-71.64627844-70.98943594 0-39.20840062 32.08419375-70.98943594 71.64627844-70.98943594 39.51155813 0 71.59575188 31.78103625 71.59575187 70.98943594S322.17247906 517.05288125 282.66092094 517.05288125M977.24581812 32.00050531H89.29681156A57.09470719 57.09470719 0 0 0 32 88.74152844v714.59330812a57.09470719 57.09470719 0 0 0 57.29681156 56.84207531h310.83773157l104.99362874 118.63572657c15.15788719 17.17893844 42.13892531 17.17893844 57.34733813 0l104.99362969-118.63572657h309.77667844a57.09470719 57.09470719 0 0 0 57.34733812-56.84207531V88.79205406A57.09470719 57.09470719 0 0 0 977.24581812 32.00050531"  /></svg>
