<?xml version="1.0" standalone="no"?><!DOCTYPE svg PUBLIC "-//W3C//DTD SVG 1.1//EN" "http://www.w3.org/Graphics/SVG/1.1/DTD/svg11.dtd"><svg class="icon" width="200px" height="200.00px" viewBox="0 0 1024 1024" version="1.1" xmlns="http://www.w3.org/2000/svg"><path d="M929.984 40.208H86.432C56.384 40.208 32 65.216 32 96.128V798.368c0 30.864 24.384 55.872 54.432 55.872h295.296l99.744 116.64a35.712 35.712 0 0 0 54.48 0l99.744-116.64h294.288c30.096 0 54.48-25.008 54.48-55.872V96.128c0-30.864-24.384-55.872-54.48-55.872m-9.552 65.664v682.752H606.704l-19.104 22.368-78.864 92.208-78.912-92.16-19.104-22.416H95.984V105.872H920.48"  /><path d="M338.144 447.2c0 38.544-30.48 69.792-68.016 69.792-37.584 0-68.064-31.2-68.064-69.744s30.48-69.792 68.064-69.792c37.536 0 68.016 31.248 68.016 69.792M576.272 447.2c0 38.544-30.48 69.792-68.064 69.792-37.536 0-68.016-31.2-68.016-69.744s30.48-69.792 68.016-69.792c37.584 0 68.064 31.248 68.064 69.792M814.4 447.2c0 38.544-30.48 69.792-68.064 69.792-37.584 0-68.016-31.2-68.016-69.744s30.432-69.792 68.016-69.792 68.016 31.248 68.016 69.792"  /></svg>
