<?xml version="1.0" standalone="no"?><!DOCTYPE svg PUBLIC "-//W3C//DTD SVG 1.1//EN" "http://www.w3.org/Graphics/SVG/1.1/DTD/svg11.dtd"><svg class="icon" width="200px" height="200.00px" viewBox="0 0 1024 1024" version="1.1" xmlns="http://www.w3.org/2000/svg"><path d="M32 86.99076125v850.0184775a54.99076125 54.99076125 0 0 0 54.99076125 54.99076125h850.0184775a55.07139281 55.07139281 0 0 0 54.99076125-54.99076125V86.99076125A54.99076125 54.99076125 0 0 0 937.00923875 32H86.99076125A54.99076125 54.99076125 0 0 0 32 86.99076125z m891.38249625 836.391735H100.53687219V100.53687219h822.84562406z"  /><path d="M548.04233188 612.54762313c0-51.68486437 9.83705719-101.67646594 73.85855812-101.67646594s64.02150187 59.02234125 64.02150187 104.82109875v192.70955812h123.20510719V591.26087656C809.12749906 484.58525094 786.06685719 402.90542562 661.41038094 402.90542562c-59.82865781 0-100.06383375 32.25264562-116.51268188 63.61834407h-1.69326468v-54.18444469H424.99848781v396.22375219H548.04233188zM286.23147969 358.15488031a71.43961031 71.43961031 0 1 0-71.35897875-71.35897875 71.43961031 71.43961031 0 0 0 71.35897875 71.35897875zM224.62892656 412.339325h123.20510625v396.22375219H224.62892656z"  /></svg>
