<?xml version="1.0" standalone="no"?><!DOCTYPE svg PUBLIC "-//W3C//DTD SVG 1.1//EN" "http://www.w3.org/Graphics/SVG/1.1/DTD/svg11.dtd"><svg class="icon" width="200px" height="200.00px" viewBox="0 0 1024 1024" version="1.1" xmlns="http://www.w3.org/2000/svg"><path d="M927.49470875 96.50529125v830.9894175H96.50529125V96.50529125h830.9894175m9.59516156-64.50529125H86.82949812A54.91012969 54.91012969 0 0 0 32 86.82949812v850.26037219a54.91012969 54.91012969 0 0 0 54.82949813 54.91012969h850.26037218a54.91012969 54.91012969 0 0 0 54.91012969-54.91012969V86.82949812a54.91012969 54.91012969 0 0 0-54.91012969-54.82949812z"  /><path d="M777.11674813 317.67780969H246.88325187a9.19200375 9.19200375 0 0 0-9.19200374 9.19200375v50.23349625a9.19200375 9.19200375 0 0 0 9.19200375 9.19200375h530.23349625a9.11137219 9.11137219 0 0 0 9.11137218-9.19200375v-50.23349625a9.11137219 9.11137219 0 0 0-9.11137218-9.19200375zM777.11674813 477.73156437H246.88325187a9.11137219 9.11137219 0 0 0-9.19200374 9.11137219v50.31412688a9.19200375 9.19200375 0 0 0 9.19200375 9.11137218h530.23349625a9.11137219 9.11137219 0 0 0 9.11137218-9.11137218v-50.31412688a9.03074062 9.03074062 0 0 0-9.11137218-9.11137219zM594.24424625 637.70468656H246.88325187a9.19200375 9.19200375 0 0 0-9.19200374 9.11137219v50.31412781a9.19200375 9.19200375 0 0 0 9.19200375 9.11137219h347.36099437a9.19200375 9.19200375 0 0 0 9.19200469-9.11137219v-50.31412781a9.19200375 9.19200375 0 0 0-9.19200469-9.11137219z"  /></svg>
