<?xml version="1.0" standalone="no"?><!DOCTYPE svg PUBLIC "-//W3C//DTD SVG 1.1//EN" "http://www.w3.org/Graphics/SVG/1.1/DTD/svg11.dtd"><svg class="icon" width="200px" height="200.00px" viewBox="0 0 1024 1024" version="1.1" xmlns="http://www.w3.org/2000/svg"><path d="M821.5940975 717.2388125a137.29982906 137.29982906 0 0 0-96.19064437 39.33236344L428.43199906 544.24102812a185.75859187 185.75859187 0 0 0 2.98829063-33.03272343 179.94354094 179.94354094 0 0 0-4.52281781-40.3823025l292.85245874-209.34185625A137.29982906 137.29982906 0 1 0 684.21350375 169.49325969a134.63459719 134.63459719 0 0 0 3.55364344 30.3674925l-289.29881625 206.75738906a183.17412469 183.17412469 0 1 0 3.79593656 203.44604062L689.94779094 815.6101025a137.29982906 137.29982906 0 1 0 131.64630656-98.37129z m0-616.39546688a68.73067875 68.73067875 0 1 1-68.64991406 68.64991407 68.73067875 68.73067875 0 0 1 68.64991406-68.64991407z m-573.42869719 524.96993438a114.44344594 114.44344594 0 1 1 114.44344594-114.60497531 114.44344594 114.44344594 0 0 1-114.44344594 114.44344593z m573.42869719 297.61756969a68.64991406 68.64991406 0 1 1 68.73067875-68.64991407 68.64991406 68.64991406 0 0 1-68.73067875 68.48838563z"  /></svg>
