<?xml version="1.0" standalone="no"?><!DOCTYPE svg PUBLIC "-//W3C//DTD SVG 1.1//EN" "http://www.w3.org/Graphics/SVG/1.1/DTD/svg11.dtd"><svg class="icon" width="200px" height="200.00px" viewBox="0 0 1024 1024" version="1.1" xmlns="http://www.w3.org/2000/svg"><path d="M593.815175 8.461474H424.80128a38.426947 38.426947 0 0 0-38.049684 33.576421L372.146122 154.138947c-37.726316 14.605474-72.542316 35.031579-103.370105 60.200421L164.489701 170.846316a38.319158 38.319158 0 0 0-47.912421 16.330105L32.070333 334.470737a38.696421 38.696421 0 0 0 9.916631 49.906526l89.680842 69.039158a390.144 390.144 0 0 0 0 119.754105L41.986964 642.263579a38.696421 38.696421 0 0 0-9.916631 49.906526l84.506947 147.240421a38.319158 38.319158 0 0 0 47.912421 16.330106l104.286316-43.493053a381.520842 381.520842 0 0 0 103.31621 60.146526l14.659369 112.64a38.426947 38.426947 0 0 0 38.049684 33.576421h169.013895c19.240421 0 35.516632-14.336 37.995789-33.576421l14.659369-112.424421c37.834105-14.551579 72.757895-35.031579 103.747368-60.200421l103.909053 43.331369a38.103579 38.103579 0 0 0 47.912421-16.330106l84.453052-147.240421a38.750316 38.750316 0 0 0-9.862736-49.906526l-89.141895-68.661895a389.982316 389.982316 0 0 0 0-120.562526l89.141895-68.661895a38.750316 38.750316 0 0 0 9.862736-49.906526l-84.453052-147.240421a38.319158 38.319158 0 0 0-47.966316-16.330105l-103.855158 43.331368a381.143579 381.143579 0 0 0-103.801263-60.254316L631.864859 42.037895a38.426947 38.426947 0 0 0-38.049684-33.576421m-25.546106 67.907368l11.264 86.393263 5.173895 40.097684 37.564632 14.497685c30.935579 11.856842 59.715368 28.564211 85.477052 49.583158l31.205053 25.438315 37.133474-15.467789 80.303158-33.522526 58.906947 102.723368-68.823579 53.032421-31.905684 24.522105 6.251789 39.882106a322.290526 322.290526 0 0 1 0 99.489684l-6.251789 39.882105 31.905684 24.522105 68.823579 53.086316-58.960842 102.669474-80.303158-33.468632-37.079579-15.521684-31.258947 25.438316a313.505684 313.505684 0 0 1-85.369263 49.583158l-37.510737 14.497684-5.22779 40.097684-11.317895 86.932211H450.347385l-11.317894-87.201685-5.22779-39.989894-37.456842-14.551579a313.775158 313.775158 0 0 1-85.045895-49.475369l-31.258947-25.49221-37.133474 15.521684-80.680421 33.630316-58.906947-102.669474 69.362526-53.463579 31.797895-24.522105-6.144-39.882105a322.721684 322.721684 0 0 1 0-98.735158l6.197895-39.882106-31.85179-24.46821-69.362526-53.463579L162.226122 243.388632l80.680421 33.68421 37.187369 15.46779 31.205052-25.438316a313.990737 313.990737 0 0 1 85.153684-49.583158l37.402948-14.497684 5.173895-39.989895 11.317894-86.716632h117.921684"  /><path d="M509.308227 321.212632c-105.633684 0-191.326316 86.123789-191.326315 192.40421 0 106.172632 85.692632 192.350316 191.326315 192.350316 105.633684 0 191.326316-86.123789 191.326316-192.404211 0-106.226526-85.692632-192.404211-191.326316-192.40421m0 67.907368a124.335158 124.335158 0 0 1 123.796211 124.496842c0 68.661895-55.511579 124.496842-123.796211 124.496842a124.281263 124.281263 0 0 1-123.79621-124.496842c0-68.661895 55.511579-124.496842 123.79621-124.496842"  /></svg>
