<?xml version="1.0" standalone="no"?><!DOCTYPE svg PUBLIC "-//W3C//DTD SVG 1.1//EN" "http://www.w3.org/Graphics/SVG/1.1/DTD/svg11.dtd"><svg class="icon" width="200px" height="200.00px" viewBox="0 0 1024 1024" version="1.1" xmlns="http://www.w3.org/2000/svg"><path d="M528.895192 690.930526c-120.993684 11.856842-221.830737-87.578947-209.866106-206.848 8.892632-88.225684 81.273263-159.636211 170.846316-168.367158 120.939789-11.802947 221.776842 87.578947 209.812211 206.848-8.838737 88.279579-81.273263 159.636211-170.846316 168.421053m363.41221-187.877053c0-20.102737-1.616842-39.828211-4.688842-59.068631l89.19579-67.368421a37.349053 37.349053 0 0 0 9.862737-48.774737l-84.614737-144.437895a38.480842 38.480842 0 0 0-47.750737-16.006737l-104.016842 42.522948a383.029895 383.029895 0 0 0-103.747369-59.068632L631.888034 41.121684a38.049684 38.049684 0 0 0-37.941895-32.875789H424.716665a38.049684 38.049684 0 0 0-37.888 32.875789l-14.605473 110.053053c-37.726316 14.282105-72.542316 34.277053-103.370106 58.960842L164.405086 167.450947a38.480842 38.480842 0 0 0-47.750737 16.006737l-84.614736 144.437895a37.349053 37.349053 0 0 0 9.862736 48.774737l89.734737 67.745684a374.945684 374.945684 0 0 0 0 117.382737L41.956244 629.598316a37.349053 37.349053 0 0 0-9.862737 48.720842l84.614737 144.491789c9.539368 16.384 30.019368 23.174737 47.750737 15.952842l104.394105-42.630736a383.622737 383.622737 0 0 0 103.262316 58.906947l14.713263 110.538105a38.049684 38.049684 0 0 0 37.941895 32.821895h169.229474c19.186526 0 35.408842-14.012632 37.888-32.821895l14.659368-110.268631a383.622737 383.622737 0 0 0 103.747369-59.014737l104.016842 42.469052a38.480842 38.480842 0 0 0 47.696842-15.952842l84.614737-144.437894a37.349053 37.349053 0 0 0-9.862737-48.774737l-89.19579-67.368421c3.072-19.294316 4.688842-39.019789 4.688842-59.122527"  /><path d="M628.923823 503.376842c0 65.050947-53.517474 117.867789-119.538526 117.86779-66.074947 0-119.592421-52.816842-119.592421-117.86779 0-65.104842 53.517474-117.867789 119.592421-117.867789 66.021053 0 119.538526 52.762947 119.538526 117.867789"  /></svg>
