<?xml version="1.0" standalone="no"?><!DOCTYPE svg PUBLIC "-//W3C//DTD SVG 1.1//EN" "http://www.w3.org/Graphics/SVG/1.1/DTD/svg11.dtd"><svg class="icon" width="200px" height="189.63px" viewBox="0 0 1080 1024" version="1.1" xmlns="http://www.w3.org/2000/svg"><path d="M536.69333375 37.76a38.4 38.4 0 0 0-27.36 11.35999969L53.33333375 509.91999969c-13.06666687 13.17333375-21.33333375 30.66666656-21.33333375 49.06666687 0 37.38666656 30.77333344 67.73333344 68.69333344 67.73333344h49.75999969v358.18666688H475.20000031V691.94666656c0-5.11999969 4.26666656-9.33333375 9.43999969-9.33333281h100.74666656c5.22666656 0 9.49333312 4.21333313 9.49333313 9.33333281v293.01333375h324.69333375v-358.18666687h46.93333312c36.69333375 0 68.90666625-27.19999969 71.35999969-63.19999969a67.2 67.2 0 0 0-19.2-51.73333406L564.10666625 49.22666656a38.34666656 38.34666656 0 0 0-27.4133325-11.46666656M536.53333344 116.90666656L970.13333375 558.08a1.06666687 1.06666687 0 0 1 0.31999969 0.53333344 5.86666687 5.86666687 0 0 1-3.94666688 1.54666687h-114.50666625v358.18666594H662.40000031V691.94666656c0-41.81333344-34.56-75.89333344-77.01333375-75.89333344H484.64c-42.45333375 0-77.01333375 34.08-77.01333375 75.89333344v226.45333313H218.02666625V560.21333375h-117.33333281c-0.21333375 0-0.48 0-0.79999969-0.32000062a1.12000031 1.12000031 0 0 1-0.32000063-0.53333344 9.97333312 9.97333312 0 0 1 2.13333375-2.93333344l434.88-439.46666625"  /><path d="M475.35999969 984.90666688h119.68000031v-66.50666719H475.35999969z"  /></svg>
