<?xml version="1.0" standalone="no"?><!DOCTYPE svg PUBLIC "-//W3C//DTD SVG 1.1//EN" "http://www.w3.org/Graphics/SVG/1.1/DTD/svg11.dtd"><svg class="icon" width="200px" height="200.00px" viewBox="0 0 1024 1024" version="1.1" xmlns="http://www.w3.org/2000/svg"><path d="M939.0707075 32H86.94949531A55.03030313 55.03030313 0 0 0 32 86.94949531v668.52525188a55.03030313 55.03030313 0 0 0 54.94949531 55.03030312h380.2828275v89.85858563H307.15151469a23.27272688 23.27272688 0 0 0-23.19191907 23.27272781v59.31313125a9.13131281 9.13131281 0 0 0 9.13131375 9.050505h439.91919188a9.050505 9.050505 0 0 0 9.050505-9.050505v-59.31313125a23.19191906 23.19191906 0 0 0-23.19191906-23.27272781H558.86868688V810.50505031h380.20202062a55.03030313 55.03030313 0 0 0 55.03030219-55.03030312V86.94949531a55.03030313 55.03030313 0 0 0-55.03030219-54.94949531z m-9.37373813 713.93939438H95.83838375V95.75757594h833.85858563z"  /><path d="M631.83838344 189.89898969v72.72727312h-43.15151438c-16.16161594 0-26.42424281 3.31313156-32.32323281 9.93939375a45.41414156 45.41414156 0 0 0-8.0808075 29.65656563v51.95959593h80.80808063l-10.74747469 81.21212157h-69.8181825v208.64646468H464.40404V435.39393969h-70.06060594V354.02020156h70.06060594v-59.95959562q0-51.151515 28.60606125-79.2727275a103.59595969 103.59595969 0 0 1 76.12121156-28.20202032 457.3737375 457.3737375 0 0 1 62.70707063 3.31313157z"  /></svg>
