<?xml version="1.0" standalone="no"?><!DOCTYPE svg PUBLIC "-//W3C//DTD SVG 1.1//EN" "http://www.w3.org/Graphics/SVG/1.1/DTD/svg11.dtd"><svg class="icon" width="200px" height="199.61px" viewBox="0 0 1026 1024" version="1.1" xmlns="http://www.w3.org/2000/svg"><path d="M929.454545 96.64646469v649.21212094H96.64646469V96.64646469h832.80808031m9.6161625-64.64646469H86.94949531A55.03030313 55.03030313 0 0 0 32 86.94949531v668.60606063a55.03030313 55.03030313 0 0 0 54.94949531 54.94949437h852.12121219a55.03030313 55.03030313 0 0 0 55.03030219-54.94949437V86.94949531a55.03030313 55.03030313 0 0 0-55.03030219-54.94949531z"  /><path d="M718.86868719 900.36363594H558.86868688v-145.45454531H467.23232281v145.45454531H307.15151469a23.27272688 23.27272688 0 0 0-23.19191907 23.27272781v59.31313125a9.13131281 9.13131281 0 0 0 9.13131375 9.050505h439.91919188a9.050505 9.050505 0 0 0 9.050505-9.050505v-59.31313125a23.19191906 23.19191906 0 0 0-23.19191906-23.27272781zM745.85858563 426.58585813c0 130.74747469-89.69697 223.75757531-222.14141438 223.75757624a229.09090875 229.09090875 0 1 1 0-458.18181843 221.01010125 221.01010125 0 0 1 153.93939469 59.95959656l-62.46464719 59.95959563c-81.77777812-78.70707094-233.69697-19.55555531-233.69696906 109.1717175a143.59596 143.59596 0 0 0 142.22222156 144.64646437c90.90909094 0 124.9292925-64.64646469 130.34343469-98.747475H523.71717125V388.36363625h218.18181844a196.1212125 196.1212125 0 0 1 3.95959593 38.22222188z"  /></svg>
