<?xml version="1.0" standalone="no"?><!DOCTYPE svg PUBLIC "-//W3C//DTD SVG 1.1//EN" "http://www.w3.org/Graphics/SVG/1.1/DTD/svg11.dtd"><svg class="icon" width="200px" height="200.00px" viewBox="0 0 1024 1024" version="1.1" xmlns="http://www.w3.org/2000/svg"><path d="M478.448 96.08a446.448 446.448 0 0 0-446.4 446.448 446.448 446.448 0 1 0 892.848 0h-446.4V96.08z m-60 64.656v441.792h441.792c-28.896 184.704-189.12 326.448-381.792 326.448-213.12 0-386.4-173.376-386.4-386.448 0-192.672 141.696-352.896 326.4-381.792z"  /><path d="M540.992 32v446.448h446.448A446.448 446.448 0 0 0 540.992 32m60 64.656a387.408 387.408 0 0 1 321.792 321.792h-321.792V96.656"  /></svg>
