<?xml version="1.0" standalone="no"?><!DOCTYPE svg PUBLIC "-//W3C//DTD SVG 1.1//EN" "http://www.w3.org/Graphics/SVG/1.1/DTD/svg11.dtd"><svg class="icon" width="200px" height="200.00px" viewBox="0 0 1024 1024" version="1.1" xmlns="http://www.w3.org/2000/svg"><path d="M929.37900875 96.64102344v649.15747875H96.64102344V96.64102344h832.73798531m9.61535156-64.64102344H86.94486969A55.02567094 55.02567094 0 0 0 32 86.94486969v668.54978531a55.02567094 55.02567094 0 0 0 54.94486969 54.94487063h852.04949062a55.02567094 55.02567094 0 0 0 55.02567188-54.94487063V86.94486969a55.02567094 55.02567094 0 0 0-55.02567188-54.94486969z"  /><path d="M467.19569094 755.17145H558.82434125v183.25730156H467.19569094z"  /><path d="M742.00084156 923.56131594v59.30813906a9.130545 9.130545 0 0 1-9.13054406 9.130545H292.98813219a9.130545 9.130545 0 0 1-9.13054407-9.130545v-59.30813906a23.18996719 23.18996719 0 0 1 23.18996719-23.18996719H718.81087437a23.18996719 23.18996719 0 0 1 23.18996719 23.18996719zM726.08298969 479.55828594l-40.40064-31.1084925a172.51073156 172.51073156 0 0 0 0-54.70246594l40.40064-31.1084925a17.37227531 17.37227531 0 0 0 4.52487187-22.62435844l-38.54221031-66.74185687a17.37227531 17.37227531 0 0 0-21.81634594-7.43371688l-47.34954937 19.63471032A174.7731675 174.7731675 0 0 0 575.55020656 258.2435825l-6.70650656-50.74320375a17.53387781 17.53387781 0 0 0-17.29147406-15.27144188h-77.08442063a17.53387781 17.53387781 0 0 0-17.37227437 15.27144188L450.46982562 258.2435825A174.7731675 174.7731675 0 0 0 403.685885 285.55441437l-47.51115187-19.71551156a17.45307656 17.45307656 0 0 0-21.89714719 7.43371688l-38.54221032 66.74185687a17.53387781 17.53387781 0 0 0 4.52487188 22.62435844l40.8854475 31.35089625a176.46999375 176.46999375 0 0 0 0 54.29845969l-40.8854475 31.270095a17.53387781 17.53387781 0 0 0-4.52487188 22.62435843l38.54221032 66.82265813a17.45307656 17.45307656 0 0 0 21.89714718 7.35291656L403.685885 556.64270656a175.58118 175.58118 0 0 0 47.10714563 27.31083282l6.70650656 51.06640875a17.53387781 17.53387781 0 0 0 17.37227531 15.27144187h76.68041344a17.53387781 17.53387781 0 0 0 17.29147406-15.27144187l6.70650656-50.9856075a173.56114781 173.56114781 0 0 0 47.34954938-27.31083282L670.33010656 576.35821906a17.37227531 17.37227531 0 0 0 21.81634594-7.35291656l38.54221031-66.82265812a17.37227531 17.37227531 0 0 0-4.60567312-22.62435844z m-213.07297407 22.05874969a80.39727281 80.39727281 0 1 1 80.80128-80.39727282 80.31647156 80.31647156 0 0 1-80.80128 80.39727282z"  /></svg>
