<?xml version="1.0" standalone="no"?><!DOCTYPE svg PUBLIC "-//W3C//DTD SVG 1.1//EN" "http://www.w3.org/Graphics/SVG/1.1/DTD/svg11.dtd"><svg class="icon" width="200px" height="200.00px" viewBox="0 0 1024 1024" version="1.1" xmlns="http://www.w3.org/2000/svg"><path d="M237.76501156 529.12634656m-62.96542968 0a62.96542969 62.96542969 0 1 0 125.93085843 0 62.96542969 62.96542969 0 1 0-125.93085843 0Z"  /><path d="M458.06050625 529.12634656m-62.96542969 0a62.96542969 62.96542969 0 1 0 125.93085938 0 62.96542969 62.96542969 0 1 0-125.93085938 0Z"  /><path d="M678.43950969 529.12634656m-62.96542969 0a62.96542969 62.96542969 0 1 0 125.93085937 0 62.96542969 62.96542969 0 1 0-125.93085937 0Z"  /><path d="M173.96449625 88.95289906v108.56108531h70.98224812V102.98233156h709.82248219v520.84268438H883.78697844v70.98224812h85.01168062a56.95281562 56.95281562 0 0 0 56.95281563-56.95281562V88.95289906A56.95281562 56.95281562 0 0 0 969.21620187 32.00008344h-738.21538125A56.95281562 56.95281562 0 0 0 173.96449625 88.95289906z"  /><path d="M32 254.4668v549.31909219a56.70229031 56.70229031 0 0 0 56.78579812 56.70229031h220.21198688l135.03328875 125.26279125a18.87292688 18.87292688 0 0 0 28.058865 0l135.1167975-125.26279125h220.21198594a56.78579812 56.78579812 0 0 0 56.78579812-56.70229031V254.4668a56.86930688 56.86930688 0 0 0-56.78579812-56.78579812H88.78579813a56.78579812 56.78579812 0 0 0-56.78579813 56.78579812z m781.13876438 535.03913438H575.72402094L457.89348875 895.22772969 340.39699156 789.50593437H102.98224813V268.74675875h709.82248218z"  /></svg>
