<?xml version="1.0" standalone="no"?><!DOCTYPE svg PUBLIC "-//W3C//DTD SVG 1.1//EN" "http://www.w3.org/Graphics/SVG/1.1/DTD/svg11.dtd"><svg class="icon" width="200px" height="190.16px" viewBox="0 0 1077 1024" version="1.1" xmlns="http://www.w3.org/2000/svg"><path d="M1008.262737 8.730947H61.116632C27.378526 8.730947 0 35.301053 0 68.015158v745.687579c0 32.768 27.378526 59.284211 61.116632 59.28421h331.560421l111.993263 123.850106c8.084211 8.946526 19.348211 13.473684 30.61221 13.473684a41.067789 41.067789 0 0 0 30.558316-13.473684l111.993263-123.796211h330.428632c33.792 0 61.170526-26.570105 61.170526-59.28421V67.961263c0-32.714105-27.378526-59.284211-61.170526-59.28421m-10.725053 69.685894v724.884211H645.281684l-21.450105 23.713684-88.549053 97.980632-88.602947-97.926737-21.450105-23.713684H71.841684V78.416842H997.591579"  /><path d="M626.364632 564.277895H239.346526a10.024421 10.024421 0 0 1-10.186105-9.808842V500.143158c0-5.497263 4.581053-9.916632 10.186105-9.916632h387.018106c5.605053 0 10.24 4.419368 10.24 9.916632v54.325895a10.024421 10.024421 0 0 1-10.24 9.862736M830.086737 391.491368H239.292632a10.024421 10.024421 0 0 1-10.186106-9.916631V327.248842c0-5.389474 4.581053-9.862737 10.186106-9.862737H829.978947c5.658947 0 10.24 4.419368 10.24 9.862737V381.574737a10.024421 10.024421 0 0 1-10.24 9.916631"  /></svg>
