<?xml version="1.0" standalone="no"?><!DOCTYPE svg PUBLIC "-//W3C//DTD SVG 1.1//EN" "http://www.w3.org/Graphics/SVG/1.1/DTD/svg11.dtd"><svg class="icon" width="200px" height="190.16px" viewBox="0 0 1077 1024" version="1.1" xmlns="http://www.w3.org/2000/svg"><path d="M577.536 213.153684h-85.692632a19.240421 19.240421 0 0 0-19.294315 16.437895l-7.383579 54.810947a195.368421 195.368421 0 0 0-52.385685 29.426527l-52.870736-21.234527a19.617684 19.617684 0 0 0-24.252632 7.976421L292.648421 372.520421a18.485895 18.485895 0 0 0 5.012211 24.414316l45.433263 33.792a183.888842 183.888842 0 0 0 0 58.529684l-45.433263 33.792a18.485895 18.485895 0 0 0-5.012211 24.360421l42.846316 72.003369a19.617684 19.617684 0 0 0 24.252631 7.976421l52.924632-21.234527c15.629474 12.288 33.253053 22.258526 52.331789 29.372632l7.437474 55.080421a19.240421 19.240421 0 0 0 19.294316 16.437895h85.692632c9.754947 0 18.000842-7.006316 19.294315-16.437895l7.437474-54.972632c19.186526-7.114105 36.864-17.084632 52.601263-29.426526l52.655158 21.180632a19.941053 19.941053 0 0 0 24.252632-7.976421l42.846315-72.003369a18.485895 18.485895 0 0 0-5.01221-24.360421l-45.16379-33.576421a183.565474 183.565474 0 0 0 0-58.960842l45.16379-33.576421a18.485895 18.485895 0 0 0 5.01221-24.414316l-42.792421-71.949474a19.563789 19.563789 0 0 0-24.306526-7.976421l-52.655158 21.180632a195.152842 195.152842 0 0 0-52.655158-29.480421l-7.383579-54.703158a19.240421 19.240421 0 0 0-19.294315-16.437895m-30.181053 52.277895l3.449263 25.653895 4.149895 30.881684 29.965473 11.15621c13.797053 5.12 26.516211 12.234105 37.99579 21.234527l24.953263 19.617684 29.642105-11.910737 24.737685-9.970526 12.611368 21.180631-21.180632 15.737264-25.438315 18.917052 4.958315 30.72a132.688842 132.688842 0 0 1 0 42.684632l-4.958315 30.72 25.438315 18.863158 21.180632 15.791158-12.611368 21.180631-24.791579-9.970526-29.642106-11.856842-24.899368 19.563789c-11.425684 8.946526-24.252632 16.168421-37.941895 21.234526l-29.965473 11.156211-4.20379 30.881684-3.503158 25.869474h-25.222737l-3.503158-26.031158-4.149894-30.773895-29.911579-11.210105a140.880842 140.880842 0 0 1-37.780211-21.234526l-24.953263-19.617685-29.642105 11.964632-25.007158 10.024421-12.611369-21.180631 21.504-15.952843 25.384422-18.863157-4.904422-30.72a133.658947 133.658947 0 0 1 0-42.415158l4.904422-30.666106-25.384422-18.863158-21.504-15.952842 12.611369-21.180631 24.953263 10.024421 29.696 11.964631 24.953263-19.671579c11.371789-8.946526 24.090947-16.114526 37.780211-21.234526l29.911579-11.15621 4.203789-30.82779 3.449263-25.761684h25.222737"  /><path d="M534.689684 366.053053c-53.571368 0-97.010526 42.091789-97.010526 94.046315 0 51.954526 43.439158 94.046316 97.010526 94.046316s97.010526-42.091789 97.010527-94.046316c0-51.954526-43.439158-94.046316-97.010527-94.046315m0 52.277894c23.767579 0 43.115789 18.701474 43.11579 41.768421a42.522947 42.522947 0 0 1-43.11579 41.822316 42.522947 42.522947 0 0 1-43.115789-41.822316c0-23.066947 19.402105-41.768421 43.115789-41.768421"  /><path d="M1008.262737 8.730947H61.116632C27.378526 8.730947 0 35.301053 0 68.015158v745.687579c0 32.768 27.378526 59.284211 61.116632 59.28421h331.560421l111.993263 123.850106c8.084211 8.946526 19.348211 13.473684 30.558316 13.473684a41.067789 41.067789 0 0 0 30.61221-13.473684l111.993263-123.796211h330.428632c33.792 0 61.170526-26.570105 61.170526-59.28421V67.961263c0-32.714105-27.378526-59.284211-61.170526-59.28421m-10.725053 69.685894v724.884211H645.281684l-21.450105 23.713684-88.549053 97.980632-88.602947-97.926737-21.450105-23.713684H71.841684V78.416842H997.591579"  /></svg>
