<?xml version="1.0" standalone="no"?><!DOCTYPE svg PUBLIC "-//W3C//DTD SVG 1.1//EN" "http://www.w3.org/Graphics/SVG/1.1/DTD/svg11.dtd"><svg class="icon" width="200px" height="190.16px" viewBox="0 0 1077 1024" version="1.1" xmlns="http://www.w3.org/2000/svg"><path d="M867.45263188 383.30947344a9.49894781 9.49894781 0 0 1-9.54947438 9.44842125H208.64a9.49894781 9.49894781 0 0 1-9.54947344-9.44842125v-52.04210532c0-5.25473719 4.29473719-9.49894781 9.6-9.49894687h649.2631575c5.25473719 0 9.49894781 4.24421063 9.49894781 9.44842125v52.04210531z m-95.49473719 166.93894781a9.49894781 9.49894781 0 0 1-9.49894688 9.44842125H208.69052656a9.49894781 9.49894781 0 0 1-9.6-9.44842125v-52.04210531c0-5.25473719 4.29473719-9.49894781 9.6-9.49894782h553.76842125c5.25473719 0 9.54947344 4.24421063 9.54947344 9.49894782v52.04210531zM977.2968425 32H89.2968425A57.09473719 57.09473719 0 0 0 32 88.84210531v714.5431575c0 31.3768425 25.66736812 56.84210531 57.2968425 56.84210531h310.83789469l104.99368406 118.63578938c15.15789469 17.17894781 42.13894781 17.17894781 57.34736813 0l104.99368406-118.63578938h309.7768425a57.09473719 57.09473719 0 0 0 57.29684156-56.84210531V88.84210531A57.09473719 57.09473719 0 0 0 977.24631594 32z"  /></svg>
