<?xml version="1.0" standalone="no"?><!DOCTYPE svg PUBLIC "-//W3C//DTD SVG 1.1//EN" "http://www.w3.org/Graphics/SVG/1.1/DTD/svg11.dtd"><svg class="icon" width="200px" height="190.16px" viewBox="0 0 1077 1024" version="1.1" xmlns="http://www.w3.org/2000/svg"><path d="M959.33365719 98.79875094v694.79050594H631.85278156l-19.95612656 22.79507437-82.32946031 93.85224469-82.32946031-93.85224469-19.95612657-22.79507437H98.79875094V98.79875094h860.53490625m9.93631406-66.79875094H88.86243687A56.86243688 56.86243688 0 0 0 32 88.86243687v714.7466325a56.77893844 56.77893844 0 0 0 56.86243688 56.77893844h308.19273562l104.039055 118.73477906a37.82479219 37.82479219 0 0 0 56.86243594 0l104.12255344-118.73477906h307.19075437a56.77893844 56.77893844 0 0 0 56.86243688-56.77893844V88.86243687A56.86243688 56.86243688 0 0 0 969.26997125 32z"  /><path d="M438.55389687 308.88082156v79.407015h-79.407015v-79.407015h79.407015m38.40928125-66.79875H320.73759969a28.38946875 28.38946875 0 0 0-28.38946875 28.38946875v156.22557844a28.38946875 28.38946875 0 0 0 28.38946875 28.38946875h156.22557843a28.38946875 28.38946875 0 0 0 28.38946969-28.38946875V270.47154031a28.38946875 28.38946875 0 0 0-28.38946969-28.38946875zM698.90202781 308.88082156v79.407015h-79.407015v-79.407015h79.407015m38.40928219-66.79875H581.08573156a28.38946875 28.38946875 0 0 0-28.38946968 28.38946875v156.22557844a28.38946875 28.38946875 0 0 0 28.38946968 28.38946875h156.22557844a28.38946875 28.38946875 0 0 0 28.38946875-28.38946875V270.47154031a28.38946875 28.38946875 0 0 0-28.38946875-28.38946875zM761.02486625 548.27084469H297.02404344a4.75941094 4.75941094 0 0 1-4.6759125-4.75941094v-23.63005781a19.03764375 19.03764375 0 0 1 19.03764375-18.95414531H746.74663344a18.95414531 18.95414531 0 0 1 18.95414531 18.95414531v23.63005781a4.75941094 4.75941094 0 0 1-4.6759125 4.75941094zM761.02486625 642.95807375H297.02404344a4.75941094 4.75941094 0 0 1-4.6759125-4.75941094v-23.63005781a18.95414531 18.95414531 0 0 1 19.03764375-18.95414531H746.74663344a18.87064687 18.87064687 0 0 1 18.95414531 18.95414531v23.63005781a4.75941094 4.75941094 0 0 1-4.6759125 4.75941094z"  /></svg>
