<?xml version="1.0" standalone="no"?><!DOCTYPE svg PUBLIC "-//W3C//DTD SVG 1.1//EN" "http://www.w3.org/Graphics/SVG/1.1/DTD/svg11.dtd"><svg class="icon" width="200px" height="200.00px" viewBox="0 0 1024 1024" version="1.1" xmlns="http://www.w3.org/2000/svg"><path d="M930.00421062 40.23578938H86.46736813C56.35368406 40.23578938 32 65.2968425 32 96.21894781V800.40421063c0 30.92210531 24.35368406 55.9831575 54.46736813 55.98315749h295.27578937l99.73894781 116.91789469a35.62105219 35.62105219 0 0 0 54.46736813 0l99.73894781-116.91789469h294.31578938c30.0631575 0 54.46736813-25.06105219 54.46736812-55.9831575V96.21894781c0-30.92210531-24.40421063-55.9831575-54.46736813-55.98315843m-9.6 65.83578937v684.48h-313.71789468l-19.09894782 22.38315844-78.87157875 92.4631575-78.87157875-92.4631575-19.14947343-22.38315844H96.0168425V106.07157875h824.43789469"  /><path d="M816.67368406 395.68842125H199.74736812c-5.00210531 0-9.09473719-4.1431575-9.09473624-9.2968425V335.0568425c0-5.15368406 4.09263187-9.2968425 9.09473625-9.2968425H816.67368406c5.05263187 0 9.09473719 4.1431575 9.09473719 9.2968425v51.33473625c0 5.15368406-4.04210531 9.2968425-9.09473719 9.2968425M725.92842125 560.20210531H199.74736812c-5.00210531 0-9.09473719-4.1431575-9.09473624-9.2968425V499.57052656c0-5.15368406 4.09263187-9.2968425 9.09473625-9.2968425h526.13052656c5.00210531 0 9.09473719 4.1431575 9.09473719 9.2968425v51.33473625c0 5.15368406-4.09263187 9.2968425-9.09473719 9.2968425"  /></svg>
