<?xml version="1.0" standalone="no"?><!DOCTYPE svg PUBLIC "-//W3C//DTD SVG 1.1//EN" "http://www.w3.org/Graphics/SVG/1.1/DTD/svg11.dtd"><svg class="icon" width="200px" height="200.00px" viewBox="0 0 1024 1024" version="1.1" xmlns="http://www.w3.org/2000/svg"><path d="M1020.39156688 921.68523031v60.93393281a9.38083687 9.38083687 0 0 1-9.38083688 9.38083688H41.38084437a9.38083687 9.38083687 0 0 1-9.38083687-9.38083688v-60.93393281a23.82566625 23.82566625 0 0 1 23.82566531-23.82566625h940.74022875a23.82566625 23.82566625 0 0 1 23.82566531 23.82566625zM589.28814313 98.41300625v643.70805937H463.26946437V98.41300625h126.01867875m52.30024219-66.41300625H410.96922219a14.11276406 14.11276406 0 0 0-14.11276407 14.11276406v748.30854375a14.11276406 14.11276406 0 0 0 14.11276407 14.11276313h230.61916312a14.11276406 14.11276406 0 0 0 14.11276313-14.11276313V46.11276406a14.11276406 14.11276406 0 0 0-14.11276313-14.11276406zM235.05777313 357.25769656v384.86336907H109.03909437V357.25769656h126.01867876m52.30024125-66.41300625H56.98790094a14.11276406 14.11276406 0 0 0-14.11276406 14.11276406v489.79591782A14.11276406 14.11276406 0 0 0 56.98790094 808.53407094h230.37011344a14.11276406 14.11276406 0 0 0 14.11276406-14.11276313v-489.79591875a14.11276406 14.11276406 0 0 0-14.11276407-14.11276406zM941.02802562 216.04704219v526.07402344H815.00934688V216.04704219h126.01867875m52.30024124-66.41300532H762.62608812a14.11276406 14.11276406 0 0 0-14.11276406 14.11276313v630.92355656a14.11276406 14.11276406 0 0 0 14.11276407 14.11276313h230.61916312a14.11276406 14.11276406 0 0 0 14.11276312-14.11276313v-630.92355656a14.11276406 14.11276406 0 0 0-14.11276312-14.11276312z"  /></svg>
