<svg t="1568895381164" class="icon" viewBox="0 0 1024 1024" version="1.1" xmlns="http://www.w3.org/2000/svg" p-id="6085" width="200" height="200"><path d="M266.078316 735.932632v-12.180211c0-13.743158 10.994526-24.899368 24.522105-24.899368h434.768842c13.473684 0 24.468211 11.156211 24.468211 24.899368v12.180211c0 5.389474-4.311579 9.701053-9.593263 9.701052h-464.572632a9.701053 9.701053 0 0 1-9.593263-9.701052M556.786526 654.497684H459.183158a14.605474 14.605474 0 0 1-14.551579-14.767158V282.947368c0-8.084211 6.521263-14.713263 14.551579-14.713263h97.657263c8.030316 0 14.551579 6.575158 14.551579 14.767158v356.729263c0 8.084211-6.521263 14.767158-14.551579 14.767158M383.407158 654.497684H285.749895a14.605474 14.605474 0 0 1-14.551579-14.767158V411.755789c0-8.192 6.521263-14.767158 14.551579-14.767157h97.657263c8.084211 0 14.551579 6.575158 14.551579 14.713263v227.974737c0 8.192-6.467368 14.821053-14.551579 14.821052M728.980211 654.497684h-97.657264a14.659368 14.659368 0 0 1-14.551579-14.767158V341.477053c0-8.084211 6.521263-14.713263 14.551579-14.713264h97.657264c8.030316 0 14.551579 6.575158 14.551578 14.713264v298.253473c0 8.084211-6.521263 14.767158-14.551578 14.767158" p-id="6086"></path><path d="M819.900632 87.309474l48.128-62.625685c5.066105-6.467368 0.431158-16.060632-7.760843-16.006736l-212.345263 1.077894a9.916632 9.916632 0 0 0-9.485473 12.341895l50.337684 209.650526a9.701053 9.701053 0 0 0 17.192421 3.772632l69.254737-90.112a444.416 444.416 0 0 1 167.720421 368.478316c-9.269895 222.369684-183.296 405.450105-401.731369 421.888-255.461053 19.294316-468.668632-185.667368-468.668631-441.128421a444.092632 444.092632 0 0 1 160.875789-343.255579 9.808842 9.808842 0 0 0 1.562948-13.473684l-32.983579-42.738527a9.539368 9.539368 0 0 0-13.581474-1.616842A518.467368 518.467368 0 0 0 0.485053 517.12c11.317895 271.575579 232.825263 489.849263 500.250947 493.621895 283.863579 3.988211 515.233684-228.621474 515.233684-516.096a518.144 518.144 0 0 0-196.069052-407.336421" p-id="6087"></path></svg>
