<?xml version="1.0" standalone="no"?><!DOCTYPE svg PUBLIC "-//W3C//DTD SVG 1.1//EN" "http://www.w3.org/Graphics/SVG/1.1/DTD/svg11.dtd"><svg class="icon" width="200px" height="190.16px" viewBox="0 0 1077 1024" version="1.1" xmlns="http://www.w3.org/2000/svg"><path d="M1008.262737 8.730947H61.116632C27.378526 8.730947 0 35.301053 0 68.015158v745.687579c0 32.768 27.378526 59.284211 61.116632 59.28421h331.560421l111.993263 123.850106c8.084211 8.946526 19.348211 13.473684 30.558316 13.473684a41.067789 41.067789 0 0 0 30.61221-13.473684l111.993263-123.796211h330.428632c33.792 0 61.170526-26.570105 61.170526-59.28421V67.961263c0-32.714105-27.378526-59.284211-61.170526-59.28421m-10.725053 69.685894v724.884211H645.281684l-21.450105 23.713684-88.602947 97.980632-88.549053-97.926737-21.450105-23.713684H71.841684V78.416842H997.591579"  /><path d="M280.090947 654.443789v-12.18021c0-13.797053 11.533474-25.007158 25.815579-25.007158h457.620211c14.228211 0 25.815579 11.210105 25.815579 25.007158v12.18021c0 5.443368-4.527158 9.808842-10.132211 9.808843H290.223158a9.970526 9.970526 0 0 1-10.132211-9.808843M586.105263 572.631579H483.274105a15.090526 15.090526 0 0 1-15.25221-14.821053V199.410526a15.090526 15.090526 0 0 1 15.25221-14.821052h102.831158a15.090526 15.090526 0 0 1 15.306105 14.821052v358.4a15.090526 15.090526 0 0 1-15.306105 14.821053M403.617684 572.631579H300.732632a15.090526 15.090526 0 0 1-15.252211-14.821053V328.757895a15.090526 15.090526 0 0 1 15.252211-14.821053H403.671579a15.090526 15.090526 0 0 1 15.25221 14.821053v229.052631a15.090526 15.090526 0 0 1-15.25221 14.821053M767.353263 572.631579H664.522105a15.090526 15.090526 0 0 1-15.25221-14.821053V258.155789a15.090526 15.090526 0 0 1 15.25221-14.767157h102.831158a15.090526 15.090526 0 0 1 15.306105 14.821052v299.654737a15.090526 15.090526 0 0 1-15.306105 14.767158"  /></svg>
