<?xml version="1.0" standalone="no"?><!DOCTYPE svg PUBLIC "-//W3C//DTD SVG 1.1//EN" "http://www.w3.org/Graphics/SVG/1.1/DTD/svg11.dtd"><svg class="icon" width="200px" height="200.00px" viewBox="0 0 1024 1024" version="1.1" xmlns="http://www.w3.org/2000/svg"><path d="M584.317952 545.792l-36.7616 36.8128-23.3984 23.3984-302.6944 302.6944L106.365952 793.6l302.6944-302.6944 23.3984-23.3984 36.7616-36.7616a244.224 244.224 0 0 1 47.616-277.8624A243.4048 243.4048 0 0 1 703.050752 81.92l-187.6992 187.6992a21.7088 21.7088 0 0 0 0 30.72l199.5264 199.4752a21.7088 21.7088 0 0 0 30.72 0l187.648-187.7504a243.5072 243.5072 0 0 1-79.9744 194.7136c-74.1888 67.1744-181.76 80.384-268.9024 39.0656m335.36 9.9328a325.632 325.632 0 0 0 54.5792-388.1472 6.5024 6.5024 0 0 0-10.2912-1.3824l-33.9456 33.9456-20.1728 20.1728-179.712 179.712-115.0464-115.1488 179.712-179.6608 20.1216-20.1728 33.9456-33.9456a6.5536 6.5536 0 0 0-1.3824-10.2912 325.7344 325.7344 0 0 0-408.064 76.288C369.738752 200.192 348.797952 310.8864 375.677952 410.8288l-0.8192-0.8192-368.2304 368.2304a21.76 21.76 0 0 0 0 30.8224l199.3728 199.3728a21.76 21.76 0 0 0 30.7712 0l368.2816-368.2304-0.3584-0.3584a325.2736 325.2736 0 0 0 314.9824-84.0704"  /></svg>
