<?xml version="1.0" standalone="no"?><!DOCTYPE svg PUBLIC "-//W3C//DTD SVG 1.1//EN" "http://www.w3.org/Graphics/SVG/1.1/DTD/svg11.dtd"><svg class="icon" width="200px" height="200.00px" viewBox="0 0 1024 1024" version="1.1" xmlns="http://www.w3.org/2000/svg"><path d="M927.49470875 96.50529125v830.9894175H96.50529125V96.50529125h830.9894175m9.59516156-64.50529125H86.82949812A54.91012969 54.91012969 0 0 0 32 86.82949812v850.26037219a54.91012969 54.91012969 0 0 0 54.82949813 54.91012969h850.26037218a54.91012969 54.91012969 0 0 0 54.91012969-54.91012969V86.82949812a54.91012969 54.91012969 0 0 0-54.91012969-54.82949812z"  /><path d="M786.22812031 749.29884125v19.99663969a9.11137219 9.11137219 0 0 1-9.11137219 9.11137312H246.72198875a9.11137219 9.11137219 0 0 1-9.11137219-9.11137312v-19.99663969a23.14127344 23.14127344 0 0 1 23.14127344-23.14127344h502.33495687a23.14127344 23.14127344 0 0 1 23.14127344 23.14127344z"  /><path d="M440.15723188 245.59314594m13.70737406 0l116.27078812 0q13.70737406 0 13.70737407 13.707375l0 403.56122906q0 13.70737406-13.70737407 13.707375l-116.27078812 0q-13.70737406 0-13.70737406-13.707375l0-403.56122906q0-13.70737406 13.70737406-13.707375Z"  /><path d="M243.57735594 389.27868313m13.70737406-1e-8l116.27078812 0q13.70737406 0 13.707375 13.70737407l0 259.95632437q0 13.70737406-13.707375 13.707375l-116.27078812 0q-13.70737406 0-13.70737406-13.707375l0-259.95632437q0-13.70737406 13.70737406-13.70737406Z"  /><path d="M635.36637031 310.90475375m13.70737407 0l116.27078812 0q13.70737406 0 13.70737406 13.707375l0 338.24962125q0 13.70737406-13.70737406 13.707375l-116.27078812 0q-13.70737406 0-13.70737407-13.707375l0-338.24962125q0-13.70737406 13.70737407-13.707375Z"  /></svg>
