<?xml version="1.0" standalone="no"?><!DOCTYPE svg PUBLIC "-//W3C//DTD SVG 1.1//EN" "http://www.w3.org/Graphics/SVG/1.1/DTD/svg11.dtd"><svg class="icon" width="200px" height="200.00px" viewBox="0 0 1024 1024" version="1.1" xmlns="http://www.w3.org/2000/svg"><path d="M32 970.98105219V911.25894781C32 898.37473719 42.30736812 887.91578937 54.98947344 887.91578937h906.44210531c12.73263187 0 22.98947344 10.45894781 22.98947344 23.34315844V970.98105219c0 5.05263187-4.04210531 9.09473719-8.99368407 9.09473718H40.99368406A9.09473719 9.09473719 0 0 1 32 970.98105219"  /><path d="M619.31789469 800.55578938H397.1031575a13.69263188 13.69263188 0 0 1-13.64210531-13.84421063V53.97894781c0-7.62947344 6.0631575-13.84421063 13.64210531-13.84421062h222.21473719c7.52842125 0 13.64210531 6.21473719 13.64210531 13.84421062v732.73263094c0 7.62947344-6.11368406 13.84421063-13.64210531 13.84421062"  /><path d="M278.01263188 800.50526281H55.74736813a13.69263188 13.69263188 0 0 1-13.59157875-13.79368406V307.41894781c0-7.62947344 6.0631575-13.79368406 13.64210531-13.793685h222.21473719c7.47789469 0 13.64210531 6.16421062 13.64210531 13.793685v479.29263094c0 7.62947344-6.16421062 13.79368406-13.64210531 13.79368406M958.29894781 800.50526281h-222.21473719a13.69263188 13.69263188 0 0 1-13.64210531-13.79368406V169.17894781c0-7.62947344 6.11368406-13.84421063 13.64210531-13.84421062h222.21473719c7.57894781 0 13.64210531 6.21473719 13.64210438 13.84421062v617.53263094c0 7.62947344-6.0631575 13.79368406-13.64210438 13.79368406"  /></svg>
