<?xml version="1.0" standalone="no"?><!DOCTYPE svg PUBLIC "-//W3C//DTD SVG 1.1//EN" "http://www.w3.org/Graphics/SVG/1.1/DTD/svg11.dtd"><svg class="icon" width="200px" height="150.04px" viewBox="0 0 1365 1024" version="1.1" xmlns="http://www.w3.org/2000/svg"><path d="M674.94399969 459.45600031a48.64000031 48.64000031 0 0 1-23.04-5.82400031l-531.648-334.72000031h1103.48800031l-525.696 334.72000031a48.64000031 48.64000031 0 0 1-23.04 5.76M1238.78400031 32H105.152C64.76799969 32 32 64.76799969 32 105.08799969v813.82400062C32 959.23200031 64.76799969 992 105.21600031 992h1133.568c40.44799969 0 73.21600031-32.70400031 73.21599938-73.08799969V105.08799969C1311.99999969 64.76799969 1279.232 32 1238.78400031 32M118.016 217.98399969L605.43999969 524.92800031 608 526.46400031l2.56000031 1.40799938a136.06399969 136.06399969 0 0 0 128.832 0l2.75199938-1.47199969 2.56000031-1.66399969 481.27999969-306.432v689.02399969H118.016V217.98399969"  /></svg>
