<?xml version="1.0" standalone="no"?><!DOCTYPE svg PUBLIC "-//W3C//DTD SVG 1.1//EN" "http://www.w3.org/Graphics/SVG/1.1/DTD/svg11.dtd"><svg class="icon" width="200px" height="200.00px" viewBox="0 0 1024 1024" version="1.1" xmlns="http://www.w3.org/2000/svg"><path d="M32 86.74886656v850.42163532a54.82949813 54.82949813 0 0 0 54.74886656 54.82949812h850.42163532a54.91012969 54.91012969 0 0 0 54.82949812-54.82949812V86.74886656a54.82949813 54.82949813 0 0 0-54.82949812-54.74886656H86.74886656A54.74886656 54.74886656 0 0 0 32 86.74886656z m891.38249625 836.63362969H100.53687219V100.53687219h822.84562406z"  /><path d="M826.22140063 504.66252312v-18.94842937c-0.56442094-19.59348187-1.53200063-39.18696469-3.06400126-57.57097219a368.97026719 368.97026719 0 0 0-9.43389843-62.48950125 97.80614813 97.80614813 0 0 0-68.94003-69.26255718c-19.8353775-5.40231844-58.699815-8.70821438-113.44868157-10.72400438-25.96338-0.96757969-53.86191844-1.61263219-81.67982531-1.93515844h-74.90677031c-27.89853844 0-55.71644531 0.96757969-81.76045688 1.93515844-54.66823406 2.09642156-93.61330406 5.40231844-113.44868062 10.72400438a97.88677969 97.88677969 0 0 0-68.94003094 69.26255718A370.01847844 370.01847844 0 0 0 201.32639 428.14312156c-1.61263219 18.38400844-2.58021187 37.97749031-3.14463281 57.57097219v52.49118094c0.56442094 19.67411344 1.53200063 39.18696469 3.14463281 57.65160375a377.27532375 377.27532375 0 0 0 9.35326687 62.40886968 98.12867438 98.12867438 0 0 0 68.94003094 69.34318875c19.8353775 5.32168687 58.78044656 8.62758281 113.44868063 10.64337282 26.04401156 1.04821125 53.86191844 1.69326375 81.76045781 2.01579h74.50361156c27.81790687 0 55.71644531-0.96757969 81.67982532-2.01579 54.74886656-2.09642156 93.69393562-5.40231844 113.44868062-10.64337281a97.72551656 97.72551656 0 0 0 68.94003094-69.34318875 367.84142438 367.84142438 0 0 0 9.43389844-62.40886969c1.53200063-18.46464 2.49958031-37.97749031 3.06400125-57.65160375v-33.54275156z m-376.71090188 101.59583438V417.7416425L612.54762313 512z"  /></svg>
