<?xml version="1.0" standalone="no"?><!DOCTYPE svg PUBLIC "-//W3C//DTD SVG 1.1//EN" "http://www.w3.org/Graphics/SVG/1.1/DTD/svg11.dtd"><svg class="icon" width="128px" height="128.00px" viewBox="0 0 1024 1024" version="1.1" xmlns="http://www.w3.org/2000/svg"><path d="M939.0707075 32H86.94949531A55.03030313 55.03030313 0 0 0 32 86.94949531v668.52525188a55.03030313 55.03030313 0 0 0 54.94949531 55.03030312h385.53535313v89.85858563H307.15151469a23.27272688 23.27272688 0 0 0-23.19191907 23.27272781v59.31313125a9.13131281 9.13131281 0 0 0 9.13131375 9.050505h439.91919188a9.050505 9.050505 0 0 0 9.050505-9.050505v-59.31313125a23.19191906 23.19191906 0 0 0-23.19191906-23.27272781H564.1212125V810.50505031h374.949495a54.94949531 54.94949531 0 0 0 54.94949438-55.03030312V86.94949531a54.94949531 54.94949531 0 0 0-54.94949438-54.94949531z m-16.16161688 709.73737406H98.50505094V100.68686844h824.24242406z"  /><path d="M696.40404031 347.151515a195.07070719 195.07070719 0 0 0-362.747475-2.26262625 125.41414125 125.41414125 0 0 0 27.63636375 247.75757625h298.98989906A125.41414125 125.41414125 0 0 0 696.40404031 347.151515z m-72 192.9696975H397.17171688c-52.68686906 0-103.35353531-23.35353562-103.35353532-75.95959594 0-45.49494937 43.23232313-77.17171688 85.73737406-86.70707156C401.53535375 322.90909063 450.74747469 274.42424281 513.05050531 274.42424281s114.90909094 47.67676781 136.40404032 103.03030219C688.72727281 389.252525 726.94949469 421.01010125 726.94949469 464.16161656c0 52.68686906-49.85858625 75.95959594-102.54545438 75.95959594z"  /></svg>
