<?xml version="1.0" standalone="no"?><!DOCTYPE svg PUBLIC "-//W3C//DTD SVG 1.1//EN" "http://www.w3.org/Graphics/SVG/1.1/DTD/svg11.dtd"><svg class="icon" width="200px" height="200.00px" viewBox="0 0 1024 1024" version="1.1" xmlns="http://www.w3.org/2000/svg"><path d="M462.88842125 928.99368406h90.69473625v-179.72210531H462.88842125z"  /><path d="M281.44842125 972.59789469v-58.20631594c0-12.53052656 10.30736812-22.7368425 22.98947344-22.73684156h407.59578937c12.63157875 0 22.93894781 10.20631594 22.93894782 22.73684156v58.20631594c0 4.95157875-4.04210531 8.9431575-8.99368407 8.9431575h-435.5368425a8.99368406 8.99368406 0 0 1-8.99368406-8.9431575"  /><path d="M653.97894781 589.50736812H358.04631594c-68.61473719 0-124.19368406-55.07368406-124.19368406-123.03157875 0-58.61052656 41.43157875-107.62105219 96.75789468-119.94947343a193.11157875 193.11157875 0 0 1 179.16631594-119.79789469 193.11157875 193.11157875 0 0 1 179.97473625 121.97052656 123.1831575 123.1831575 0 0 1 88.42105313 117.77684157c0 67.95789469-55.62947344 123.03157875-124.19368407 123.03157875M948.1431575 39.88210531H68.27789469A36.12631594 36.12631594 0 0 0 32 75.8568425v691.70526281c0 19.80631594 16.21894781 35.87368406 36.27789469 35.87368406h879.86526281a36.12631594 36.12631594 0 0 0 36.27789469-35.87368406V75.80631594a36.12631594 36.12631594 0 0 0-36.27789469-35.92421063"  /></svg>
